<?xml version="1.0" encoding="UTF-8" standalone="no"?>
<!DOCTYPE svg PUBLIC "-//W3C//DTD SVG 1.0//EN" "http://www.w3.org/TR/2001/PR-SVG-20010719/DTD/svg10.dtd">
<svg width="52cm" height="33cm" viewBox="576 256 1027 647" xmlns="http://www.w3.org/2000/svg" xmlns:xlink="http://www.w3.org/1999/xlink">
  <g>
    <polygon style="fill: #ffffff" points="1243.66,260 1367.32,353.158 1243.66,446.315 1120,353.158 "/>
    <polygon style="fill: none; fill-opacity:0; stroke-width: 2; stroke: #a6a6a6" points="1243.66,260 1367.32,353.158 1243.66,446.315 1120,353.158 "/>
    <text style="fill: #a6a6a6;text-anchor:middle;font-size:18.0622;font-family:monospace;font-style:normal;font-weight:normal" x="1243.66" y="358.669">
      <tspan x="1243.66" y="358.669">game_logic.Rules</tspan>
    </text>
  </g>
  <line style="fill: none; fill-opacity:0; stroke-width: 2; stroke-dasharray: 10; stroke: #000000" x1="1020" y1="280" x2="1156.62" y2="324.688"/>
  <line style="fill: none; fill-opacity:0; stroke-width: 2; stroke-dasharray: 10; stroke: #a6a6a6" x1="1260" y1="540" x2="1251.39" y2="441.498"/>
  <g>
    <g>
      <polygon style="fill: #ffffff" points="1000,900 1160,900 1160,860 1120,800 1040,800 1000,860 "/>
      <polygon style="fill: none; fill-opacity:0; stroke-width: 2; stroke: #a6a6a6" points="1000,900 1160,900 1160,860 1120,800 1040,800 1000,860 "/>
    </g>
    <text style="fill: #a6a6a6;text-anchor:middle;font-size:18.0622;font-family:monospace;font-style:normal;font-weight:normal" x="1080" y="866.25">
      <tspan x="1080" y="866.25">RandomAgent</tspan>
    </text>
  </g>
  <g>
    <g>
      <polygon style="fill: #ffffff" points="1400,900 1560,900 1560,860 1520,800 1440,800 1400,860 "/>
      <polygon style="fill: none; fill-opacity:0; stroke-width: 2; stroke: #a6a6a6" points="1400,900 1560,900 1560,860 1520,800 1440,800 1400,860 "/>
    </g>
    <text style="fill: #a6a6a6;text-anchor:middle;font-size:18.0622;font-family:monospace;font-style:normal;font-weight:normal" x="1480" y="866.25">
      <tspan x="1480" y="866.25">MechTurkAgent</tspan>
    </text>
  </g>
  <polyline style="fill: none; fill-opacity:0; stroke-width: 6; stroke-dasharray: 20 4 4 4 4 4; stroke: #a6a6a6" points="940,900 940,500 1600,500 "/>
  <polyline style="fill: none; fill-opacity:0; stroke-width: 6; stroke-dasharray: 20 4 4 4 4 4; stroke: #000000" points="1080,260 1080,500 "/>
  <polyline style="fill: none; fill-opacity:0; stroke-width: 6; stroke-dasharray: 20 4 4 4 4 4; stroke: #000000" points="580,500 1080,500 "/>
  <g>
    <g>
      <ellipse style="fill: #ffffff" cx="697.067" cy="823.534" rx="77.0673" ry="73.5336"/>
      <ellipse style="fill: none; fill-opacity:0; stroke-width: 2; stroke: #a6a6a6" cx="697.067" cy="823.534" rx="77.0673" ry="73.5336"/>
      <text style="fill: #a6a6a6;text-anchor:middle;font-size:12.8;font-family:sanserif;font-style:normal;font-weight:normal" x="697.067" y="827.434">
        <tspan x="697.067" y="827.434"></tspan>
      </text>
    </g>
    <text style="fill: #a6a6a6;text-anchor:middle;font-size:18.0622;font-family:serif;font-style:normal;font-weight:normal" x="697.068" y="818.495">
      <tspan x="697.068" y="818.495">Human</tspan>
      <tspan x="697.068" y="841.073">Tester</tspan>
    </text>
  </g>
  <g>
    <line style="fill: none; fill-opacity:0; stroke-width: 2; stroke: #a6a6a6" x1="697.487" y1="734.27" x2="699.581" y2="655.73"/>
    <polygon style="fill: #a6a6a6" points="697.128,747.765 688.61,729.531 697.487,734.27 706.604,730.011 "/>
    <polygon style="fill: none; fill-opacity:0; stroke-width: 2; stroke: #a6a6a6" points="697.128,747.765 688.61,729.531 697.487,734.27 706.604,730.011 "/>
    <polygon style="fill: #a6a6a6" points="699.94,642.235 708.458,660.469 699.581,655.73 690.464,659.989 "/>
    <polygon style="fill: none; fill-opacity:0; stroke-width: 2; stroke: #a6a6a6" points="699.94,642.235 708.458,660.469 699.581,655.73 690.464,659.989 "/>
  </g>
  <g>
    <polyline style="fill: none; fill-opacity:0; stroke-width: 2; stroke: #a6a6a6" points="1380,660 1380,740 1180,740 1180,652.236 "/>
    <polygon style="fill: none; fill-opacity:0; stroke-width: 2; stroke: #a6a6a6" points="1185,652.236 1180,642.236 1175,652.236 "/>
  </g>
  <g>
    <polyline style="fill: none; fill-opacity:0; stroke-width: 2; stroke: #a6a6a6" points="1480,800 1480,740 1180,740 1180,652.236 "/>
    <polygon style="fill: none; fill-opacity:0; stroke-width: 2; stroke: #a6a6a6" points="1185,652.236 1180,642.236 1175,652.236 "/>
  </g>
  <g>
    <polyline style="fill: none; fill-opacity:0; stroke-width: 2; stroke: #a6a6a6" points="1080,800 1080,740 1180,740 1180,652.236 "/>
    <polygon style="fill: none; fill-opacity:0; stroke-width: 2; stroke: #a6a6a6" points="1185,652.236 1180,642.236 1175,652.236 "/>
  </g>
  <g>
    <polyline style="fill: none; fill-opacity:0; stroke-width: 2; stroke: #a6a6a6" points="1280,800 1280,740 1180,740 1180,652.236 "/>
    <polygon style="fill: none; fill-opacity:0; stroke-width: 2; stroke: #a6a6a6" points="1185,652.236 1180,642.236 1175,652.236 "/>
  </g>
  <g>
    <polyline style="fill: none; fill-opacity:0; stroke-width: 2; stroke: #000000" points="795.736,590 820,590 820,360 844.264,360 "/>
    <polygon style="fill: #000000" points="782.236,590 800.236,581 795.736,590 800.236,599 "/>
    <polygon style="fill: none; fill-opacity:0; stroke-width: 2; stroke: #000000" points="782.236,590 800.236,581 795.736,590 800.236,599 "/>
    <polygon style="fill: #000000" points="857.764,360 839.764,369 844.264,360 839.764,351 "/>
    <polygon style="fill: none; fill-opacity:0; stroke-width: 2; stroke: #000000" points="857.764,360 839.764,369 844.264,360 839.764,351 "/>
  </g>
  <g>
    <polyline style="fill: none; fill-opacity:0; stroke-width: 2; stroke: #000000" points="1084.26,570 1060,570 1060,360 1035.74,360 "/>
    <polygon style="fill: #000000" points="1097.76,570 1079.76,579 1084.26,570 1079.76,561 "/>
    <polygon style="fill: none; fill-opacity:0; stroke-width: 2; stroke: #000000" points="1097.76,570 1079.76,579 1084.26,570 1079.76,561 "/>
    <polygon style="fill: #000000" points="1022.24,360 1040.24,351 1035.74,360 1040.24,369 "/>
    <polygon style="fill: none; fill-opacity:0; stroke-width: 2; stroke: #000000" points="1022.24,360 1040.24,351 1035.74,360 1040.24,369 "/>
  </g>
  <g>
    <g>
      <polygon style="fill: #ffffff" points="1310,560 1470,560 1470,600 1410,660 1350,660 1310,600 "/>
      <polygon style="fill: none; fill-opacity:0; stroke-width: 4; stroke: #a6a6a6" points="1310,560 1470,560 1470,600 1410,660 1350,660 1310,600 "/>
    </g>
    <text style="fill: #a6a6a6;text-anchor:middle;font-size:20.32;font-family:monospace;font-style:normal;font-weight:700" x="1390" y="607.05">
      <tspan x="1390" y="607.05">COGITO</tspan>
    </text>
  </g>
  <g>
    <g>
      <rect style="fill: #ffffff" x="620" y="540" width="160" height="100"/>
      <rect style="fill: none; fill-opacity:0; stroke-width: 2; stroke: #a6a6a6" x="620" y="540" width="160" height="100"/>
    </g>
    <text style="fill: #a6a6a6;text-anchor:middle;font-size:18.0622;font-family:sanserif;font-style:normal;font-weight:normal" x="700" y="584.961">
      <tspan x="700" y="584.961">HTML 5</tspan>
      <tspan x="700" y="607.539">Client</tspan>
    </text>
  </g>
  <g>
    <g>
      <rect style="fill: #ffffff" x="1100" y="540" width="160" height="60"/>
      <rect style="fill: none; fill-opacity:0; stroke-width: 2; stroke: #a6a6a6" x="1100" y="540" width="160" height="60"/>
    </g>
    <text style="fill: #a6a6a6;text-anchor:middle;font-size:18.0622;font-family:sanserif;font-style:normal;font-weight:normal" x="1180" y="576.25">
      <tspan x="1180" y="576.25">Frontier</tspan>
    </text>
  </g>
  <g>
    <g>
      <polygon style="fill: #ffffff" points="1100,600 1260,600 1260,700 1220,640 1140,640 1100,700 "/>
      <polygon style="fill: none; fill-opacity:0; stroke-width: 2; stroke: #a6a6a6" points="1100,600 1260,600 1260,700 1220,640 1140,640 1100,700 "/>
    </g>
    <text style="fill: #a6a6a6;text-anchor:middle;font-size:18.0622;font-family:monospace;font-style:normal;font-weight:normal" x="1180" y="626.25">
      <tspan x="1180" y="626.25">Agent</tspan>
    </text>
  </g>
  <g>
    <g>
      <polygon style="fill: #ffffff" points="1200,900 1360,900 1360,860 1320,800 1240,800 1200,860 "/>
      <polygon style="fill: none; fill-opacity:0; stroke-width: 2; stroke: #a6a6a6" points="1200,900 1360,900 1360,860 1320,800 1240,800 1200,860 "/>
    </g>
    <text style="fill: #a6a6a6;text-anchor:middle;font-size:18.0622;font-family:monospace;font-style:normal;font-weight:normal" x="1280" y="866.25">
      <tspan x="1280" y="866.25">MiniMaxAgent</tspan>
    </text>
  </g>
  <g>
    <g>
      <rect style="fill: #ffffff" x="860" y="280" width="160" height="160"/>
      <rect style="fill: none; fill-opacity:0; stroke-width: 6; stroke: #000000" x="860" y="280" width="160" height="160"/>
    </g>
    <text style="fill: #000000;text-anchor:middle;font-size:20.32;font-family:monospace;font-style:italic;font-weight:700" x="940" y="367.05">
      <tspan x="940" y="367.05">game_service</tspan>
    </text>
  </g>
</svg>
