<?xml version="1.0" encoding="UTF-8" standalone="no"?>
<!DOCTYPE svg PUBLIC "-//W3C//DTD SVG 1.0//EN" "http://www.w3.org/TR/2001/PR-SVG-20010719/DTD/svg10.dtd">
<svg width="75cm" height="32cm" viewBox="-15 63 1487 628" xmlns="http://www.w3.org/2000/svg" xmlns:xlink="http://www.w3.org/1999/xlink">
  <g>
    <rect style="fill: #ffffff" x="97.575" y="64" width="44.85" height="36"/>
    <rect style="fill: none; fill-opacity:0; stroke-width: 2; stroke: #000000" x="97.575" y="64" width="44.85" height="36"/>
    <text style="fill: #000000;text-anchor:middle;font-size:12.8;font-family:sanserif;font-style:normal;font-weight:normal" x="120" y="85.9">
      <tspan x="120" y="85.9">E/S:</tspan>
    </text>
    <line style="fill: none; fill-opacity:0; stroke-width: 1; stroke: #000000" x1="107.575" y1="88.9" x2="132.425" y2="88.9"/>
  </g>
  <g>
    <rect style="fill: #ffffff" x="268.1" y="64" width="83.8" height="36"/>
    <rect style="fill: none; fill-opacity:0; stroke-width: 2; stroke: #000000" x="268.1" y="64" width="83.8" height="36"/>
    <text style="fill: #000000;text-anchor:middle;font-size:12.8;font-family:sanserif;font-style:normal;font-weight:normal" x="310" y="85.9">
      <tspan x="310" y="85.9">RoolBook:</tspan>
    </text>
    <line style="fill: none; fill-opacity:0; stroke-width: 1; stroke: #000000" x1="278.1" y1="88.9" x2="341.9" y2="88.9"/>
  </g>
  <g>
    <rect style="fill: #ffffff" x="474.7" y="64" width="50.6" height="36"/>
    <rect style="fill: none; fill-opacity:0; stroke-width: 2; stroke: #000000" x="474.7" y="64" width="50.6" height="36"/>
    <text style="fill: #000000;text-anchor:middle;font-size:12.8;font-family:sanserif;font-style:normal;font-weight:normal" x="500" y="85.9">
      <tspan x="500" y="85.9">ACB:</tspan>
    </text>
    <line style="fill: none; fill-opacity:0; stroke-width: 1; stroke: #000000" x1="484.7" y1="88.9" x2="515.3" y2="88.9"/>
  </g>
  <g>
    <rect style="fill: #ffffff" x="695.25" y="64" width="49.5" height="36"/>
    <rect style="fill: none; fill-opacity:0; stroke-width: 2; stroke: #000000" x="695.25" y="64" width="49.5" height="36"/>
    <text style="fill: #000000;text-anchor:middle;font-size:12.8;font-family:sanserif;font-style:normal;font-weight:normal" x="720" y="85.9">
      <tspan x="720" y="85.9">ACP:</tspan>
    </text>
    <line style="fill: none; fill-opacity:0; stroke-width: 1; stroke: #000000" x1="705.25" y1="88.9" x2="734.75" y2="88.9"/>
  </g>
  <g>
    <rect style="fill: #ffffff" x="884.7" y="64" width="137.65" height="36"/>
    <rect style="fill: none; fill-opacity:0; stroke-width: 2; stroke: #000000" x="884.7" y="64" width="137.65" height="36"/>
    <text style="fill: #000000;text-anchor:middle;font-size:12.8;font-family:sanserif;font-style:normal;font-weight:normal" x="953.525" y="85.9">
      <tspan x="953.525" y="85.9">Mémoire primaire:</tspan>
    </text>
    <line style="fill: none; fill-opacity:0; stroke-width: 1; stroke: #000000" x1="894.7" y1="88.9" x2="1012.35" y2="88.9"/>
  </g>
  <g>
    <rect style="fill: #ffffff" x="1125.88" y="64" width="79.95" height="36"/>
    <rect style="fill: none; fill-opacity:0; stroke-width: 2; stroke: #000000" x="1125.88" y="64" width="79.95" height="36"/>
    <text style="fill: #000000;text-anchor:middle;font-size:12.8;font-family:sanserif;font-style:normal;font-weight:normal" x="1165.85" y="85.9">
      <tspan x="1165.85" y="85.9">Mémoire:</tspan>
    </text>
    <line style="fill: none; fill-opacity:0; stroke-width: 1; stroke: #000000" x1="1135.88" y1="88.9" x2="1195.83" y2="88.9"/>
  </g>
  <g>
    <rect style="fill: #ffffff" x="1214.7" y="64" width="127.75" height="36"/>
    <rect style="fill: none; fill-opacity:0; stroke-width: 2; stroke: #000000" x="1214.7" y="64" width="127.75" height="36"/>
    <text style="fill: #000000;text-anchor:middle;font-size:12.8;font-family:sanserif;font-style:normal;font-weight:normal" x="1278.58" y="85.9">
      <tspan x="1278.58" y="85.9">Moteur de choix:</tspan>
    </text>
    <line style="fill: none; fill-opacity:0; stroke-width: 1; stroke: #000000" x1="1224.7" y1="88.9" x2="1332.45" y2="88.9"/>
  </g>
  <g>
    <line style="fill: none; fill-opacity:0; stroke-width: 1; stroke-dasharray: 8; stroke: #000000" x1="120" y1="100" x2="120" y2="140"/>
    <line style="fill: none; fill-opacity:0; stroke-width: 1; stroke-dasharray: 8; stroke: #000000" x1="120" y1="600" x2="120" y2="640"/>
    <rect style="fill: #ffffff" x="113" y="140" width="14" height="460"/>
    <rect style="fill: none; fill-opacity:0; stroke-width: 2; stroke: #000000" x="113" y="140" width="14" height="460"/>
  </g>
  <g>
    <line style="fill: none; fill-opacity:0; stroke-width: 1; stroke-dasharray: 8; stroke: #000000" x1="310" y1="100" x2="310" y2="160"/>
    <line style="fill: none; fill-opacity:0; stroke-width: 1; stroke-dasharray: 8; stroke: #000000" x1="310" y1="180" x2="310" y2="604"/>
    <rect style="fill: #ffffff" x="303" y="160" width="14" height="20"/>
    <rect style="fill: none; fill-opacity:0; stroke-width: 2; stroke: #000000" x="303" y="160" width="14" height="20"/>
  </g>
  <g>
    <line style="fill: none; fill-opacity:0; stroke-width: 1; stroke-dasharray: 8; stroke: #000000" x1="720" y1="100" x2="720" y2="200"/>
    <line style="fill: none; fill-opacity:0; stroke-width: 1; stroke-dasharray: 8; stroke: #000000" x1="720" y1="460" x2="720" y2="640"/>
    <rect style="fill: #ffffff" x="713" y="200" width="14" height="260"/>
    <rect style="fill: none; fill-opacity:0; stroke-width: 2; stroke: #000000" x="713" y="200" width="14" height="260"/>
  </g>
  <g>
    <line style="fill: none; fill-opacity:0; stroke-width: 1; stroke-dasharray: 8; stroke: #000000" x1="953.524" y1="100" x2="953.524" y2="220"/>
    <line style="fill: none; fill-opacity:0; stroke-width: 1; stroke-dasharray: 8; stroke: #000000" x1="953.524" y1="300" x2="953.524" y2="370"/>
    <rect style="fill: #ffffff" x="946.524" y="220" width="14" height="80"/>
    <rect style="fill: none; fill-opacity:0; stroke-width: 2; stroke: #000000" x="946.524" y="220" width="14" height="80"/>
  </g>
  <g>
    <line style="fill: none; fill-opacity:0; stroke-width: 1; stroke-dasharray: 8; stroke: #000000" x1="1165.85" y1="100" x2="1165.85" y2="240"/>
    <line style="fill: none; fill-opacity:0; stroke-width: 1; stroke-dasharray: 8; stroke: #000000" x1="1165.85" y1="280" x2="1165.85" y2="690"/>
    <rect style="fill: #ffffff" x="1158.85" y="240" width="14" height="40"/>
    <rect style="fill: none; fill-opacity:0; stroke-width: 2; stroke: #000000" x="1158.85" y="240" width="14" height="40"/>
  </g>
  <g>
    <line style="fill: none; fill-opacity:0; stroke-width: 1; stroke-dasharray: 8; stroke: #000000" x1="1278.58" y1="100" x2="1278.58" y2="460"/>
    <line style="fill: none; fill-opacity:0; stroke-width: 1; stroke-dasharray: 8; stroke: #000000" x1="1278.58" y1="580" x2="1278.58" y2="608"/>
    <rect style="fill: #ffffff" x="1271.58" y="460" width="14" height="120"/>
    <rect style="fill: none; fill-opacity:0; stroke-width: 2; stroke: #000000" x="1271.58" y="460" width="14" height="120"/>
  </g>
  <g>
    <line style="fill: none; fill-opacity:0; stroke-width: 2; stroke: #000000" x1="286" y1="160" x2="127" y2="160"/>
    <polygon style="fill: #000000" points="286,165 302,160 286,155 "/>
    <polygon style="fill: none; fill-opacity:0; stroke-width: 2; stroke: #000000" points="286,165 302,160 286,155 "/>
    <text style="fill: #000000;text-anchor:middle;font-size:12.7998;font-family:sanserif;font-style:normal;font-weight:normal" x="214.95" y="152">État de plateau (Matrice)</text>
  </g>
  <g>
    <line style="fill: none; fill-opacity:0; stroke-width: 2; stroke: #000000" x1="476" y1="180" x2="317" y2="180"/>
    <polygon style="fill: #000000" points="476,185 492,180 476,175 "/>
    <polygon style="fill: none; fill-opacity:0; stroke-width: 2; stroke: #000000" points="476,185 492,180 476,175 "/>
    <text style="fill: #000000;text-anchor:middle;font-size:12.7998;font-family:sanserif;font-style:normal;font-weight:normal" x="404.95" y="172">Coups possibles (Matrices)</text>
  </g>
  <g>
    <line style="fill: none; fill-opacity:0; stroke-width: 2; stroke: #000000" x1="696" y1="200" x2="507" y2="200"/>
    <polygon style="fill: #000000" points="696,205 712,200 696,195 "/>
    <polygon style="fill: none; fill-opacity:0; stroke-width: 2; stroke: #000000" points="696,205 712,200 696,195 "/>
    <text style="fill: #000000;text-anchor:middle;font-size:12.7998;font-family:sanserif;font-style:normal;font-weight:normal" x="609.95" y="192">Coups possibles (Con. Base)</text>
  </g>
  <g>
    <line style="fill: none; fill-opacity:0; stroke-width: 2; stroke: #000000" x1="929.524" y1="220" x2="727" y2="220"/>
    <polygon style="fill: #000000" points="929.524,225 945.524,220 929.524,215 "/>
    <polygon style="fill: none; fill-opacity:0; stroke-width: 2; stroke: #000000" points="929.524,225 945.524,220 929.524,215 "/>
    <text style="fill: #000000;text-anchor:middle;font-size:12.7998;font-family:sanserif;font-style:normal;font-weight:normal" x="836.712" y="212">Requête en mémoire</text>
  </g>
  <g>
    <line style="fill: none; fill-opacity:0; stroke-width: 2; stroke-dasharray: 8; stroke: #000000" x1="744" y1="300" x2="946.524" y2="300"/>
    <polygon style="fill: #000000" points="744,295 728,300 744,305 "/>
    <polygon style="fill: none; fill-opacity:0; stroke-width: 2; stroke: #000000" points="744,295 728,300 744,305 "/>
    <text style="fill: #000000;text-anchor:middle;font-size:12.7998;font-family:sanserif;font-style:normal;font-weight:normal" x="836.712" y="292">Élements en mémoire</text>
  </g>
  <rect style="fill: none; fill-opacity:0; stroke-width: 2; stroke: #000000" x="670" y="320" width="310" height="120"/>
  <g>
    <line style="fill: none; fill-opacity:0; stroke-width: 1; stroke-dasharray: 8; stroke: #000000" x1="953.524" y1="300" x2="953.524" y2="380"/>
    <line style="fill: none; fill-opacity:0; stroke-width: 1; stroke-dasharray: 8; stroke: #000000" x1="953.524" y1="420" x2="953.524" y2="480"/>
    <rect style="fill: #ffffff" x="946.524" y="380" width="14" height="40"/>
    <rect style="fill: none; fill-opacity:0; stroke-width: 2; stroke: #000000" x="946.524" y="380" width="14" height="40"/>
  </g>
  <g>
    <line style="fill: none; fill-opacity:0; stroke-width: 2; stroke: #000000" x1="939.819" y1="380" x2="727" y2="380"/>
    <polyline style="fill: none; fill-opacity:0; stroke-width: 2; stroke: #000000" points="927.171,385 943.171,380 927.171,375 "/>
    <text style="fill: #000000;text-anchor:middle;font-size:12.7998;font-family:sanserif;font-style:normal;font-weight:normal" x="836.712" y="372">Ajout d'un concept (Con. Poussé)</text>
  </g>
  <g>
    <g>
      <rect style="fill: #ffffff" x="670" y="320" width="190" height="25.2"/>
      <rect style="fill: none; fill-opacity:0; stroke-width: 2; stroke: #000000" x="670" y="320" width="190" height="25.2"/>
    </g>
    <text style="fill: #000000;text-anchor:middle;font-size:12.8;font-family:sanserif;font-style:normal;font-weight:normal" x="765" y="337.05">
      <tspan x="765" y="337.05">loop(i=nb_coups_possibles)</tspan>
    </text>
  </g>
  <g>
    <line style="fill: none; fill-opacity:0; stroke-width: 2; stroke: #000000" x1="1141.85" y1="240" x2="960.524" y2="240"/>
    <polygon style="fill: #000000" points="1141.85,245 1157.85,240 1141.85,235 "/>
    <polygon style="fill: none; fill-opacity:0; stroke-width: 2; stroke: #000000" points="1141.85,245 1157.85,240 1141.85,235 "/>
    <text style="fill: #000000;text-anchor:middle;font-size:12.7998;font-family:sanserif;font-style:normal;font-weight:normal" x="1059.64" y="232">Transmission de la requête</text>
  </g>
  <g>
    <line style="fill: none; fill-opacity:0; stroke-width: 2; stroke-dasharray: 8; stroke: #000000" x1="977.524" y1="280" x2="1158.85" y2="280"/>
    <polygon style="fill: #000000" points="977.524,275 961.524,280 977.524,285 "/>
    <polygon style="fill: none; fill-opacity:0; stroke-width: 2; stroke: #000000" points="977.524,275 961.524,280 977.524,285 "/>
    <text style="fill: #000000;text-anchor:middle;font-size:12.7998;font-family:sanserif;font-style:normal;font-weight:normal" x="1059.64" y="272">Réponse</text>
  </g>
  <g>
    <line style="fill: none; fill-opacity:0; stroke-width: 2; stroke: #000000" x1="1264.87" y1="460" x2="727" y2="460"/>
    <polyline style="fill: none; fill-opacity:0; stroke-width: 2; stroke: #000000" points="1252.22,465 1268.22,460 1252.22,455 "/>
    <text style="fill: #000000;text-anchor:middle;font-size:12.7998;font-family:sanserif;font-style:normal;font-weight:normal" x="999.238" y="452">Stimulation</text>
  </g>
  <g>
    <line style="fill: none; fill-opacity:0; stroke-width: 2; stroke: #000000" x1="1451.99" y1="479.768" x2="1285.58" y2="480"/>
    <polyline style="fill: none; fill-opacity:0; stroke-width: 2; stroke: #000000" points="1439.35,484.786 1455.34,479.763 1439.33,474.786 "/>
    <text style="fill: #000000;text-anchor:middle;font-size:12.7998;font-family:sanserif;font-style:normal;font-weight:normal" x="1372.08" y="471.88">Inibition de l'introspection</text>
  </g>
  <g>
    <line style="fill: none; fill-opacity:0; stroke-width: 1; stroke-dasharray: 8; stroke: #000000" x1="953.524" y1="420" x2="953.524" y2="500"/>
    <line style="fill: none; fill-opacity:0; stroke-width: 1; stroke-dasharray: 8; stroke: #000000" x1="953.524" y1="540" x2="953.524" y2="640"/>
    <rect style="fill: #ffffff" x="946.524" y="500" width="14" height="40"/>
    <rect style="fill: none; fill-opacity:0; stroke-width: 2; stroke: #000000" x="946.524" y="500" width="14" height="40"/>
  </g>
  <g>
    <line style="fill: none; fill-opacity:0; stroke-width: 2; stroke: #000000" x1="977.524" y1="500" x2="1271.57" y2="500"/>
    <polygon style="fill: #000000" points="977.524,495 961.524,500 977.524,505 "/>
    <polygon style="fill: none; fill-opacity:0; stroke-width: 2; stroke: #000000" points="977.524,495 961.524,500 977.524,505 "/>
    <text style="fill: #000000;text-anchor:middle;font-size:12.7998;font-family:sanserif;font-style:normal;font-weight:normal" x="1116" y="492">Demande Concepts Poussés</text>
  </g>
  <g>
    <line style="fill: none; fill-opacity:0; stroke-width: 2; stroke-dasharray: 8; stroke: #000000" x1="1254.57" y1="540" x2="960.524" y2="540"/>
    <polygon style="fill: #000000" points="1254.57,545 1270.57,540 1254.57,535 "/>
    <polygon style="fill: none; fill-opacity:0; stroke-width: 2; stroke: #000000" points="1254.57,545 1270.57,540 1254.57,535 "/>
    <text style="fill: #000000;text-anchor:middle;font-size:12.7998;font-family:sanserif;font-style:normal;font-weight:normal" x="1116" y="532">Élements en mémoire</text>
  </g>
  <g>
    <line style="fill: none; fill-opacity:0; stroke-width: 1; stroke-dasharray: 8; stroke: #000000" x1="500" y1="100" x2="500" y2="180"/>
    <line style="fill: none; fill-opacity:0; stroke-width: 1; stroke-dasharray: 8; stroke: #000000" x1="500" y1="200" x2="500" y2="688.6"/>
    <rect style="fill: #ffffff" x="493" y="180" width="14" height="20"/>
    <rect style="fill: none; fill-opacity:0; stroke-width: 2; stroke: #000000" x="493" y="180" width="14" height="20"/>
  </g>
  <g>
    <line style="fill: none; fill-opacity:0; stroke-width: 2; stroke-dasharray: 8; stroke: #000000" x1="144" y1="580" x2="1271.57" y2="580"/>
    <polygon style="fill: #000000" points="144,575 128,580 144,585 "/>
    <polygon style="fill: none; fill-opacity:0; stroke-width: 2; stroke: #000000" points="144,575 128,580 144,585 "/>
    <text style="fill: #000000;text-anchor:middle;font-size:12.7998;font-family:sanserif;font-style:normal;font-weight:normal" x="699.238" y="572">Choix</text>
  </g>
  <g>
    <line style="fill: none; fill-opacity:0; stroke-width: 2; stroke: #000000" x1="96.0002" y1="139.927" x2="3.00543" y2="139.53"/>
    <polygon style="fill: #000000" points="95.9788,144.927 112,139.996 96.0215,134.927 "/>
    <polygon style="fill: none; fill-opacity:0; stroke-width: 2; stroke: #000000" points="95.9788,144.927 112,139.996 96.0215,134.927 "/>
    <text style="fill: #000000;text-anchor:middle;font-size:12.7998;font-family:sanserif;font-style:normal;font-weight:normal" x="52" y="132">État de plateau</text>
  </g>
  <g>
    <ellipse style="fill: #000000" cx="-4" cy="139.5" rx="6" ry="6"/>
    <ellipse style="fill: none; fill-opacity:0; stroke-width: 2; stroke: #000000" cx="-4" cy="139.5" rx="6" ry="6"/>
  </g>
  <g>
    <line style="fill: none; fill-opacity:0; stroke-width: 2; stroke-dasharray: 8; stroke: #000000" x1="16.9822" y1="599.976" x2="113" y2="600"/>
    <polygon style="fill: #000000" points="16.9834,594.976 0.982181,599.972 16.9809,604.976 "/>
    <polygon style="fill: none; fill-opacity:0; stroke-width: 2; stroke: #000000" points="16.9834,594.976 0.982181,599.972 16.9809,604.976 "/>
    <text style="fill: #000000;text-anchor:middle;font-size:12.7998;font-family:sanserif;font-style:normal;font-weight:normal" x="50.4884" y="592.22">Choix</text>
  </g>
  <g>
    <ellipse style="fill: #000000" cx="-7.00544" cy="599.97" rx="6" ry="6"/>
    <ellipse style="fill: none; fill-opacity:0; stroke-width: 2; stroke: #000000" cx="-7.00544" cy="599.97" rx="6" ry="6"/>
  </g>
  <g>
    <ellipse style="fill: #000000" cx="1465" cy="479.75" rx="6" ry="6"/>
    <ellipse style="fill: none; fill-opacity:0; stroke-width: 2; stroke: #000000" cx="1465" cy="479.75" rx="6" ry="6"/>
  </g>
</svg>
