<?xml version="1.0" encoding="UTF-8" standalone="no"?>
<!DOCTYPE svg PUBLIC "-//W3C//DTD SVG 1.0//EN" "http://www.w3.org/TR/2001/PR-SVG-20010719/DTD/svg10.dtd">
<svg width="25cm" height="17cm" viewBox="299 170 483 327" xmlns="http://www.w3.org/2000/svg" xmlns:xlink="http://www.w3.org/1999/xlink">
  <g>
    <rect style="fill: #ffffff" x="300" y="208" width="80" height="36" rx="10" ry="10"/>
    <rect style="fill: none; fill-opacity:0; stroke-width: 2; stroke: #000000" x="300" y="208" width="80" height="36" rx="10" ry="10"/>
    <text style="fill: #000000;text-anchor:middle;font-size:12.8;font-family:sanserif;font-style:normal;font-weight:normal" x="340" y="229.9">
      <tspan x="340" y="229.9">OBJ_1</tspan>
    </text>
  </g>
  <line style="fill: none; fill-opacity:0; stroke-width: 2; stroke: #dcdcdc" x1="316" y1="244" x2="780" y2="244"/>
  <g>
    <rect style="fill: #ffffff" x="300" y="244" width="80" height="36" rx="10" ry="10"/>
    <rect style="fill: none; fill-opacity:0; stroke-width: 2; stroke: #000000" x="300" y="244" width="80" height="36" rx="10" ry="10"/>
    <text style="fill: #000000;text-anchor:middle;font-size:12.8;font-family:sanserif;font-style:normal;font-weight:normal" x="340" y="265.9">
      <tspan x="340" y="265.9">OBJ_2</tspan>
    </text>
  </g>
  <line style="fill: none; fill-opacity:0; stroke-width: 2; stroke: #dcdcdc" x1="316" y1="280" x2="780" y2="280"/>
  <g>
    <rect style="fill: #ffffff" x="300" y="280" width="80" height="36" rx="10" ry="10"/>
    <rect style="fill: none; fill-opacity:0; stroke-width: 2; stroke: #000000" x="300" y="280" width="80" height="36" rx="10" ry="10"/>
    <text style="fill: #000000;text-anchor:middle;font-size:12.8;font-family:sanserif;font-style:normal;font-weight:normal" x="340" y="301.9">
      <tspan x="340" y="301.9">OBJ_3</tspan>
    </text>
  </g>
  <line style="fill: none; fill-opacity:0; stroke-width: 2; stroke: #dcdcdc" x1="316" y1="316" x2="780" y2="316"/>
  <g>
    <rect style="fill: #ffffff" x="300" y="316" width="80" height="36" rx="10" ry="10"/>
    <rect style="fill: none; fill-opacity:0; stroke-width: 2; stroke: #000000" x="300" y="316" width="80" height="36" rx="10" ry="10"/>
    <text style="fill: #000000;text-anchor:middle;font-size:12.8;font-family:sanserif;font-style:normal;font-weight:normal" x="340" y="337.9">
      <tspan x="340" y="337.9">OBJ_4</tspan>
    </text>
  </g>
  <line style="fill: none; fill-opacity:0; stroke-width: 2; stroke: #dcdcdc" x1="316" y1="352" x2="780" y2="352"/>
  <g>
    <rect style="fill: #ffffff" x="300" y="352" width="80" height="36" rx="10" ry="10"/>
    <rect style="fill: none; fill-opacity:0; stroke-width: 2; stroke: #000000" x="300" y="352" width="80" height="36" rx="10" ry="10"/>
    <text style="fill: #000000;text-anchor:middle;font-size:12.8;font-family:sanserif;font-style:normal;font-weight:normal" x="340" y="373.9">
      <tspan x="340" y="373.9">OBJ_5</tspan>
    </text>
  </g>
  <line style="fill: none; fill-opacity:0; stroke-width: 2; stroke: #dcdcdc" x1="316" y1="388" x2="780" y2="388"/>
  <g>
    <rect style="fill: #ffffff" x="300" y="388" width="80" height="36" rx="10" ry="10"/>
    <rect style="fill: none; fill-opacity:0; stroke-width: 2; stroke: #000000" x="300" y="388" width="80" height="36" rx="10" ry="10"/>
    <text style="fill: #000000;text-anchor:middle;font-size:12.8;font-family:sanserif;font-style:normal;font-weight:normal" x="340" y="409.9">
      <tspan x="340" y="409.9">OBJ_6</tspan>
    </text>
  </g>
  <line style="fill: none; fill-opacity:0; stroke-width: 2; stroke: #dcdcdc" x1="316" y1="424" x2="780" y2="424"/>
  <g>
    <rect style="fill: #ffffff" x="300" y="424" width="80" height="36" rx="10" ry="10"/>
    <rect style="fill: none; fill-opacity:0; stroke-width: 2; stroke: #000000" x="300" y="424" width="80" height="36" rx="10" ry="10"/>
    <text style="fill: #000000;text-anchor:middle;font-size:12.8;font-family:sanserif;font-style:normal;font-weight:normal" x="340" y="445.9">
      <tspan x="340" y="445.9">OBJ_7</tspan>
    </text>
  </g>
  <line style="fill: none; fill-opacity:0; stroke-width: 2; stroke: #dcdcdc" x1="316" y1="460" x2="780" y2="460"/>
  <line style="fill: none; fill-opacity:0; stroke-width: 2; stroke: #dcdcdc" x1="316" y1="496" x2="780" y2="496"/>
  <line style="fill: none; fill-opacity:0; stroke-width: 2; stroke: #dcdcdc" x1="460" y1="182" x2="460" y2="496"/>
  <g>
    <rect style="fill: #ffffff" x="380" y="172" width="80" height="36" rx="10" ry="10"/>
    <rect style="fill: none; fill-opacity:0; stroke-width: 2; stroke: #000000" x="380" y="172" width="80" height="36" rx="10" ry="10"/>
    <text style="fill: #000000;text-anchor:middle;font-size:12.8;font-family:sanserif;font-style:normal;font-weight:normal" x="420" y="193.9">
      <tspan x="420" y="193.9">ATTR_1</tspan>
    </text>
  </g>
  <line style="fill: none; fill-opacity:0; stroke-width: 2; stroke: #dcdcdc" x1="540" y1="182" x2="540" y2="496"/>
  <g>
    <rect style="fill: #ffffff" x="460" y="172" width="80" height="36" rx="10" ry="10"/>
    <rect style="fill: none; fill-opacity:0; stroke-width: 2; stroke: #000000" x="460" y="172" width="80" height="36" rx="10" ry="10"/>
    <text style="fill: #000000;text-anchor:middle;font-size:12.8;font-family:sanserif;font-style:normal;font-weight:normal" x="500" y="193.9">
      <tspan x="500" y="193.9">ATTR_2</tspan>
    </text>
  </g>
  <line style="fill: none; fill-opacity:0; stroke-width: 2; stroke: #dcdcdc" x1="620" y1="182" x2="620" y2="496"/>
  <g>
    <rect style="fill: #ffffff" x="540" y="172" width="80" height="36" rx="10" ry="10"/>
    <rect style="fill: none; fill-opacity:0; stroke-width: 2; stroke: #000000" x="540" y="172" width="80" height="36" rx="10" ry="10"/>
    <text style="fill: #000000;text-anchor:middle;font-size:12.8;font-family:sanserif;font-style:normal;font-weight:normal" x="580" y="193.9">
      <tspan x="580" y="193.9">ATTR_3</tspan>
    </text>
  </g>
  <line style="fill: none; fill-opacity:0; stroke-width: 2; stroke: #dcdcdc" x1="700" y1="182" x2="700" y2="496"/>
  <g>
    <rect style="fill: #ffffff" x="620" y="172" width="80" height="36" rx="10" ry="10"/>
    <rect style="fill: none; fill-opacity:0; stroke-width: 2; stroke: #000000" x="620" y="172" width="80" height="36" rx="10" ry="10"/>
    <text style="fill: #000000;text-anchor:middle;font-size:12.8;font-family:sanserif;font-style:normal;font-weight:normal" x="660" y="193.9">
      <tspan x="660" y="193.9">ATTR_4</tspan>
    </text>
  </g>
  <line style="fill: none; fill-opacity:0; stroke-width: 2; stroke: #dcdcdc" x1="780" y1="182" x2="780" y2="496"/>
  <g>
    <rect style="fill: #ffffff" x="700" y="172" width="80" height="36" rx="10" ry="10"/>
    <rect style="fill: none; fill-opacity:0; stroke-width: 2; stroke: #000000" x="700" y="172" width="80" height="36" rx="10" ry="10"/>
    <text style="fill: #000000;text-anchor:middle;font-size:12.8;font-family:sanserif;font-style:normal;font-weight:normal" x="740" y="193.9">
      <tspan x="740" y="193.9">ATTR_5</tspan>
    </text>
  </g>
  <g>
    <ellipse style="fill: #000000" cx="422" cy="226" rx="10" ry="10"/>
    <ellipse style="fill: none; fill-opacity:0; stroke-width: 2; stroke: #000000" cx="422" cy="226" rx="10" ry="10"/>
  </g>
  <g>
    <ellipse style="fill: #000000" cx="422" cy="262" rx="10" ry="10"/>
    <ellipse style="fill: none; fill-opacity:0; stroke-width: 2; stroke: #000000" cx="422" cy="262" rx="10" ry="10"/>
  </g>
  <g>
    <ellipse style="fill: #000000" cx="422" cy="298" rx="10" ry="10"/>
    <ellipse style="fill: none; fill-opacity:0; stroke-width: 2; stroke: #000000" cx="422" cy="298" rx="10" ry="10"/>
  </g>
  <g>
    <ellipse style="fill: #000000" cx="422" cy="370" rx="10" ry="10"/>
    <ellipse style="fill: none; fill-opacity:0; stroke-width: 2; stroke: #000000" cx="422" cy="370" rx="10" ry="10"/>
  </g>
  <g>
    <ellipse style="fill: #000000" cx="422" cy="442" rx="10" ry="10"/>
    <ellipse style="fill: none; fill-opacity:0; stroke-width: 2; stroke: #000000" cx="422" cy="442" rx="10" ry="10"/>
  </g>
  <g>
    <ellipse style="fill: #000000" cx="502" cy="478" rx="10" ry="10"/>
    <ellipse style="fill: none; fill-opacity:0; stroke-width: 2; stroke: #000000" cx="502" cy="478" rx="10" ry="10"/>
  </g>
  <g>
    <ellipse style="fill: #000000" cx="502" cy="442" rx="10" ry="10"/>
    <ellipse style="fill: none; fill-opacity:0; stroke-width: 2; stroke: #000000" cx="502" cy="442" rx="10" ry="10"/>
  </g>
  <g>
    <ellipse style="fill: #000000" cx="502" cy="334" rx="10" ry="10"/>
    <ellipse style="fill: none; fill-opacity:0; stroke-width: 2; stroke: #000000" cx="502" cy="334" rx="10" ry="10"/>
  </g>
  <g>
    <ellipse style="fill: #000000" cx="502" cy="298" rx="10" ry="10"/>
    <ellipse style="fill: none; fill-opacity:0; stroke-width: 2; stroke: #000000" cx="502" cy="298" rx="10" ry="10"/>
  </g>
  <g>
    <ellipse style="fill: #000000" cx="502" cy="226" rx="10" ry="10"/>
    <ellipse style="fill: none; fill-opacity:0; stroke-width: 2; stroke: #000000" cx="502" cy="226" rx="10" ry="10"/>
  </g>
  <g>
    <ellipse style="fill: #000000" cx="582" cy="262" rx="10" ry="10"/>
    <ellipse style="fill: none; fill-opacity:0; stroke-width: 2; stroke: #000000" cx="582" cy="262" rx="10" ry="10"/>
  </g>
  <g>
    <ellipse style="fill: #000000" cx="582" cy="298" rx="10" ry="10"/>
    <ellipse style="fill: none; fill-opacity:0; stroke-width: 2; stroke: #000000" cx="582" cy="298" rx="10" ry="10"/>
  </g>
  <g>
    <ellipse style="fill: #000000" cx="582" cy="370" rx="10" ry="10"/>
    <ellipse style="fill: none; fill-opacity:0; stroke-width: 2; stroke: #000000" cx="582" cy="370" rx="10" ry="10"/>
  </g>
  <g>
    <ellipse style="fill: #000000" cx="582" cy="442" rx="10" ry="10"/>
    <ellipse style="fill: none; fill-opacity:0; stroke-width: 2; stroke: #000000" cx="582" cy="442" rx="10" ry="10"/>
  </g>
  <g>
    <ellipse style="fill: #000000" cx="582" cy="478" rx="10" ry="10"/>
    <ellipse style="fill: none; fill-opacity:0; stroke-width: 2; stroke: #000000" cx="582" cy="478" rx="10" ry="10"/>
  </g>
  <g>
    <ellipse style="fill: #000000" cx="662" cy="478" rx="10" ry="10"/>
    <ellipse style="fill: none; fill-opacity:0; stroke-width: 2; stroke: #000000" cx="662" cy="478" rx="10" ry="10"/>
  </g>
  <g>
    <ellipse style="fill: #000000" cx="662" cy="442" rx="10" ry="10"/>
    <ellipse style="fill: none; fill-opacity:0; stroke-width: 2; stroke: #000000" cx="662" cy="442" rx="10" ry="10"/>
  </g>
  <g>
    <ellipse style="fill: #000000" cx="662" cy="406" rx="10" ry="10"/>
    <ellipse style="fill: none; fill-opacity:0; stroke-width: 2; stroke: #000000" cx="662" cy="406" rx="10" ry="10"/>
  </g>
  <g>
    <ellipse style="fill: #000000" cx="662" cy="334" rx="10" ry="10"/>
    <ellipse style="fill: none; fill-opacity:0; stroke-width: 2; stroke: #000000" cx="662" cy="334" rx="10" ry="10"/>
  </g>
  <g>
    <ellipse style="fill: #000000" cx="662" cy="262" rx="10" ry="10"/>
    <ellipse style="fill: none; fill-opacity:0; stroke-width: 2; stroke: #000000" cx="662" cy="262" rx="10" ry="10"/>
  </g>
  <g>
    <ellipse style="fill: #000000" cx="742" cy="262" rx="10" ry="10"/>
    <ellipse style="fill: none; fill-opacity:0; stroke-width: 2; stroke: #000000" cx="742" cy="262" rx="10" ry="10"/>
  </g>
  <g>
    <ellipse style="fill: #000000" cx="662" cy="226" rx="10" ry="10"/>
    <ellipse style="fill: none; fill-opacity:0; stroke-width: 2; stroke: #000000" cx="662" cy="226" rx="10" ry="10"/>
  </g>
  <g>
    <ellipse style="fill: #000000" cx="742" cy="334" rx="10" ry="10"/>
    <ellipse style="fill: none; fill-opacity:0; stroke-width: 2; stroke: #000000" cx="742" cy="334" rx="10" ry="10"/>
  </g>
  <g>
    <ellipse style="fill: #000000" cx="742" cy="370" rx="10" ry="10"/>
    <ellipse style="fill: none; fill-opacity:0; stroke-width: 2; stroke: #000000" cx="742" cy="370" rx="10" ry="10"/>
  </g>
  <g>
    <rect style="fill: #ffffff" x="300" y="460" width="80" height="36" rx="10" ry="10"/>
    <rect style="fill: none; fill-opacity:0; stroke-width: 2; stroke: #000000" x="300" y="460" width="80" height="36" rx="10" ry="10"/>
    <text style="fill: #000000;text-anchor:middle;font-size:12.8;font-family:sanserif;font-style:normal;font-weight:normal" x="340" y="481.9">
      <tspan x="340" y="481.9">OBJ_8</tspan>
    </text>
  </g>
</svg>
