<?xml version="1.0" encoding="UTF-8" standalone="no"?>
<svg
   xmlns:dc="http://purl.org/dc/elements/1.1/"
   xmlns:cc="http://creativecommons.org/ns#"
   xmlns:rdf="http://www.w3.org/1999/02/22-rdf-syntax-ns#"
   xmlns:svg="http://www.w3.org/2000/svg"
   xmlns="http://www.w3.org/2000/svg"
   xmlns:sodipodi="http://sodipodi.sourceforge.net/DTD/sodipodi-0.dtd"
   xmlns:inkscape="http://www.inkscape.org/namespaces/inkscape"
   contentScriptType="text/ecmascript"
   width="915.23792"
   zoomAndPan="magnify"
   contentStyleType="text/css"
   viewBox="-22 -155 168.70279 128.36853"
   height="696.50281"
   preserveAspectRatio="xMidYMid meet"
   version="1.1"
   id="svg2"
   inkscape:version="0.48.1 r9760"
   sodipodi:docname="bdd_small.svg">
  <metadata
     id="metadata102">
    <rdf:RDF>
      <cc:Work
         rdf:about="">
        <dc:format>image/svg+xml</dc:format>
        <dc:type
           rdf:resource="http://purl.org/dc/dcmitype/StillImage" />
        <dc:title></dc:title>
      </cc:Work>
    </rdf:RDF>
  </metadata>
  <defs
     id="defs100" />
  <sodipodi:namedview
     pagecolor="#ffffff"
     bordercolor="#666666"
     borderopacity="1"
     objecttolerance="10"
     gridtolerance="10"
     guidetolerance="10"
     inkscape:pageopacity="0"
     inkscape:pageshadow="2"
     inkscape:window-width="1280"
     inkscape:window-height="742"
     id="namedview98"
     showgrid="false"
     inkscape:zoom="0.58026159"
     inkscape:cx="334.05215"
     inkscape:cy="305.44812"
     inkscape:window-x="0"
     inkscape:window-y="26"
     inkscape:window-maximized="1"
     inkscape:current-layer="svg2"
     fit-margin-top="0"
     fit-margin-left="0"
     fit-margin-right="0"
     fit-margin-bottom="0" />
  <g
     id="edges"
     transform="translate(1.1528206,0.63789593)">
    <path
       d="m 60.103184,-146.14728 c -27.59823,3.05494 -71.331765,26.43828 -77.756005,65.552355"
       class="1 2"
       id="path5"
       inkscape:connector-curvature="0"
       style="fill:none;stroke:#a3cc9d;stroke-width:1;stroke-opacity:1"
       sodipodi:nodetypes="cc" />
    <path
       d="m 60.103184,-146.14728 c 28.803646,-3.17508 76.771726,35.26779 79.946786,64.071429"
       class="1 3"
       id="path7"
       inkscape:connector-curvature="0"
       style="fill:none;stroke:#a3b3cc;stroke-width:1;stroke-opacity:1" />
    <path
       d="m -17.652821,-80.594925 c 10.388195,-8.81076 39.186625,-6.444611 47.997384,3.943588"
       class="2 4"
       id="path9"
       inkscape:connector-curvature="0"
       style="fill:none;stroke:#aeffa2;stroke-width:1;stroke-opacity:1" />
    <path
       d="m -17.652821,-80.594925 c 3.728995,-14.952553 31.751305,-31.787885 46.703856,-28.058895"
       class="2 5"
       id="path11"
       inkscape:connector-curvature="0"
       style="fill:none;stroke:#aeffa2;stroke-width:1;stroke-opacity:1" />
    <path
       d="m -17.652821,-80.594925 c 12.830785,-5.211967 39.894911,6.216263 45.106877,19.047047"
       class="2 6"
       id="path13"
       inkscape:connector-curvature="0"
       style="fill:none;stroke:#aeffa2;stroke-width:1;stroke-opacity:1" />
    <path
       d="m -17.652821,-80.594925 c 5.679472,-13.388931 34.282069,-24.953115 47.670994,-19.273636"
       class="2 7"
       id="path15"
       inkscape:connector-curvature="0"
       style="fill:none;stroke:#aeffa2;stroke-width:1;stroke-opacity:1" />
    <path
       d="m -17.652821,-80.594925 c 17.645148,1.168175 42.360611,29.388153 41.192439,47.033299"
       class="2 8"
       id="path17"
       inkscape:connector-curvature="0"
       style="fill:none;stroke:#aeffa2;stroke-width:1;stroke-opacity:1" />
    <path
       d="m -17.652821,-80.594925 c 11.084153,-6.809921 37.925251,-0.398567 44.735169,10.685585"
       class="2 9"
       id="path19"
       inkscape:connector-curvature="0"
       style="fill:none;stroke:#aeffa2;stroke-width:1;stroke-opacity:1" />
    <path
       d="m -17.652821,-80.594925 c 9.36689,-9.812416 38.135842,-10.48069 47.94825,-1.1138"
       class="2 10"
       id="path21"
       inkscape:connector-curvature="0"
       style="fill:none;stroke:#aeffa2;stroke-width:1;stroke-opacity:1" />
    <path
       d="m -17.652821,-80.594925 c 13.998502,-3.199203 39.795058,12.999741 42.994261,26.998241"
       class="2 11"
       id="path23"
       inkscape:connector-curvature="0"
       style="fill:none;stroke:#aeffa2;stroke-width:1;stroke-opacity:1" />
    <path
       d="m -17.652821,-80.594925 c 16.280692,-0.418434 41.329384,23.374947 41.747822,39.655636"
       class="2 12"
       id="path25"
       inkscape:connector-curvature="0"
       style="fill:none;stroke:#aeffa2;stroke-width:1;stroke-opacity:1" />
    <path
       d="m -17.652821,-80.594925 c 7.645038,-12.10186 37.265387,-18.787102 49.367249,-11.142059"
       class="2 13"
       id="path27"
       inkscape:connector-curvature="0"
       style="fill:none;stroke:#aeffa2;stroke-width:1;stroke-opacity:1" />
    <path
       d="m 140.04997,-82.075851 c -6.46499,19.386272 -45.241887,38.768188 -64.628164,32.303196"
       class="3 14"
       id="path29"
       inkscape:connector-curvature="0"
       style="fill:none;stroke:#adceff;stroke-width:1;stroke-opacity:1" />
    <path
       d="m 140.04997,-82.075851 c -11.38823,14.079238 -49.589437,18.115757 -63.668676,6.727523"
       class="3 15"
       id="path31"
       inkscape:connector-curvature="0"
       style="fill:none;stroke:#adceff;stroke-width:1;stroke-opacity:1" />
    <path
       d="m 140.04997,-82.075851 c -15.71594,11.666809 -56.790075,5.593124 -68.456884,-10.122818"
       class="3 16"
       id="path33"
       inkscape:connector-curvature="0"
       style="fill:none;stroke:#adceff;stroke-width:1;stroke-opacity:1" />
    <path
       d="M 140.04997,-82.075851 C 122.1153,-75.403893 85.205353,-92.297974 78.533394,-110.23264"
       class="3 17"
       id="path35"
       inkscape:connector-curvature="0"
       style="fill:none;stroke:#adceff;stroke-width:1;stroke-opacity:1" />
    <path
       d="M 75.421806,-49.772655 C 61.726578,-44.132099 32.722904,-56.214111 27.082348,-69.90934"
       class="14 9"
       id="path37"
       inkscape:connector-curvature="0"
       style="fill:none;stroke:#ade6d0;stroke-width:1;stroke-opacity:1" />
    <path
       d="M 75.421806,-49.772655 C 60.009315,-47.134594 32.933491,-66.296234 30.295429,-81.708725"
       class="14 10"
       id="path39"
       inkscape:connector-curvature="0"
       style="fill:none;stroke:#ade6d0;stroke-width:1;stroke-opacity:1" />
    <path
       d="m 75.421806,-49.772655 c -10.780883,9.25127 -40.829097,6.956851 -50.080366,-3.824029"
       class="14 11"
       id="path41"
       inkscape:connector-curvature="0"
       style="fill:none;stroke:#ade6d0;stroke-width:1;stroke-opacity:1" />
    <path
       d="m 75.421806,-49.772655 c -8.498687,12.032035 -39.294769,17.332054 -51.326805,8.833366"
       class="14 12"
       id="path43"
       inkscape:connector-curvature="0"
       style="fill:none;stroke:#ade6d0;stroke-width:1;stroke-opacity:1" />
    <path
       d="m 76.381294,-75.348328 c -9.467949,8.94674 -37.089985,8.16494 -46.036731,-1.303009"
       class="15 4"
       id="path45"
       inkscape:connector-curvature="0"
       style="fill:none;stroke:#ade6d0;stroke-width:1;stroke-opacity:1" />
    <path
       d="M 71.593086,-92.198669 C 66.45285,-80.8395 41.703735,-71.511101 30.344563,-76.651337"
       class="16 4"
       id="path47"
       inkscape:connector-curvature="0"
       style="fill:none;stroke:#ade6d0;stroke-width:1;stroke-opacity:1" />
    <path
       d="m 71.593086,-92.198669 c -2.697647,14.957962 -29.181068,33.348434 -44.13903,30.650791"
       class="16 6"
       id="path49"
       inkscape:connector-curvature="0"
       style="fill:none;stroke:#ade6d0;stroke-width:1;stroke-opacity:1" />
    <path
       d="m 71.593086,-92.198669 c -9.848961,6.780998 -34.793907,2.179069 -41.574913,-7.669892"
       class="16 7"
       id="path51"
       inkscape:connector-curvature="0"
       style="fill:none;stroke:#ade6d0;stroke-width:1;stroke-opacity:1" />
    <path
       d="M 71.593086,-92.198669 C 67.148804,-78.838661 40.442364,-65.465057 27.082348,-69.90934"
       class="16 9"
       id="path53"
       inkscape:connector-curvature="0"
       style="fill:none;stroke:#ade6d0;stroke-width:1;stroke-opacity:1" />
    <path
       d="M 71.593086,-92.198669 C 65.431541,-81.841148 40.65295,-75.547188 30.295429,-81.708725"
       class="16 10"
       id="path55"
       inkscape:connector-curvature="0"
       style="fill:none;stroke:#ade6d0;stroke-width:1;stroke-opacity:1" />
    <path
       d="m 71.593086,-92.198669 c -7.883392,8.068069 -31.810589,8.345077 -39.878658,0.461685"
       class="16 13"
       id="path57"
       inkscape:connector-curvature="0"
       style="fill:none;stroke:#ade6d0;stroke-width:1;stroke-opacity:1" />
    <path
       d="m 78.533394,-110.23264 c -9.580704,10.21223 -39.270123,11.159528 -49.482359,1.57882"
       class="17 5"
       id="path59"
       inkscape:connector-curvature="0"
       style="fill:none;stroke:#ade6d0;stroke-width:1;stroke-opacity:1" />
    <path
       d="m 78.533394,-110.23264 c -7.630226,11.775853 -36.739361,17.994305 -48.515221,10.364079"
       class="17 7"
       id="path61"
       inkscape:connector-curvature="0"
       style="fill:none;stroke:#ade6d0;stroke-width:1;stroke-opacity:1" />
  </g>
  <g
     id="nodes"
     transform="translate(1.1528206,0.63789593)">
    <circle
       r="9"
       cx="60.103184"
       class="1"
       cy="-146.14728"
       id="circle64"
       sodipodi:cx="60.103184"
       sodipodi:cy="-146.14728"
       sodipodi:rx="9"
       sodipodi:ry="9"
       style="fill:#999999;fill-opacity:1;stroke:#000000;stroke-width:1;stroke-opacity:1"
       d="m 69.103184,-146.14728 c 0,4.97056 -4.029438,9 -9,9 -4.970563,0 -9,-4.02944 -9,-9 0,-4.97056 4.029437,-9 9,-9 4.970562,0 9,4.02944 9,9 z" />
    <circle
       r="5"
       cx="-17.652821"
       class="2"
       cy="-80.594925"
       id="circle66"
       sodipodi:cx="-17.652821"
       sodipodi:cy="-80.594925"
       sodipodi:rx="5"
       sodipodi:ry="5"
       style="fill:#aeffa2;fill-opacity:1;stroke:#000000;stroke-width:1;stroke-opacity:1"
       d="m -12.652821,-80.594925 c 0,2.761424 -2.238576,5 -5,5 -2.761423,0 -5,-2.238576 -5,-5 0,-2.761424 2.238577,-5 5,-5 2.761424,0 5,2.238576 5,5 z" />
    <circle
       r="5"
       cx="140.04997"
       class="3"
       cy="-82.075851"
       id="circle68"
       sodipodi:cx="140.04997"
       sodipodi:cy="-82.075851"
       sodipodi:rx="5"
       sodipodi:ry="5"
       style="fill:#adceff;fill-opacity:1;stroke:#000000;stroke-width:1;stroke-opacity:1"
       d="m 145.04997,-82.075851 c 0,2.761423 -2.23857,5 -5,5 -2.76142,0 -5,-2.238577 -5,-5 0,-2.761424 2.23858,-5 5,-5 2.76143,0 5,2.238576 5,5 z" />
    <circle
       r="1"
       cx="30.344563"
       class="4"
       cy="-76.651337"
       id="circle70"
       sodipodi:cx="30.344563"
       sodipodi:cy="-76.651337"
       sodipodi:rx="1"
       sodipodi:ry="1"
       style="fill:#aeffa2;fill-opacity:1;stroke:#000000;stroke-width:1;stroke-opacity:1"
       d="m 31.344563,-76.651337 c 0,0.552285 -0.447716,1 -1,1 -0.552285,0 -1,-0.447715 -1,-1 0,-0.552284 0.447715,-1 1,-1 0.552284,0 1,0.447716 1,1 z" />
    <circle
       r="1"
       cx="29.051035"
       class="5"
       cy="-108.65382"
       id="circle72"
       sodipodi:cx="29.051035"
       sodipodi:cy="-108.65382"
       sodipodi:rx="1"
       sodipodi:ry="1"
       style="fill:#aeffa2;fill-opacity:1;stroke:#000000;stroke-width:1;stroke-opacity:1"
       d="m 30.051035,-108.65382 c 0,0.55229 -0.447715,1 -1,1 -0.552285,0 -1,-0.44771 -1,-1 0,-0.55228 0.447715,-1 1,-1 0.552285,0 1,0.44772 1,1 z" />
    <circle
       r="1"
       cx="27.454056"
       class="6"
       cy="-61.547878"
       id="circle74"
       sodipodi:cx="27.454056"
       sodipodi:cy="-61.547878"
       sodipodi:rx="1"
       sodipodi:ry="1"
       style="fill:#aeffa2;fill-opacity:1;stroke:#000000;stroke-width:1;stroke-opacity:1"
       d="m 28.454056,-61.547878 c 0,0.552284 -0.447715,1 -1,1 -0.552285,0 -1,-0.447716 -1,-1 0,-0.552285 0.447715,-1 1,-1 0.552285,0 1,0.447715 1,1 z" />
    <circle
       r="1"
       cx="30.018173"
       class="7"
       cy="-99.868561"
       id="circle76"
       sodipodi:cx="30.018173"
       sodipodi:cy="-99.868561"
       sodipodi:rx="1"
       sodipodi:ry="1"
       style="fill:#aeffa2;fill-opacity:1;stroke:#000000;stroke-width:1;stroke-opacity:1"
       d="m 31.018173,-99.868561 c 0,0.552285 -0.447715,1 -1,1 -0.552285,0 -1,-0.447715 -1,-1 0,-0.552289 0.447715,-0.999999 1,-0.999999 0.552285,0 1,0.44771 1,0.999999 z" />
    <circle
       r="1"
       cx="23.539618"
       class="8"
       cy="-33.561626"
       id="circle78"
       sodipodi:cx="23.539618"
       sodipodi:cy="-33.561626"
       sodipodi:rx="1"
       sodipodi:ry="1"
       style="fill:#aeffa2;fill-opacity:1;stroke:#000000;stroke-width:1;stroke-opacity:1"
       d="m 24.539618,-33.561626 c 0,0.552284 -0.447716,1 -1,1 -0.552285,0 -1,-0.447716 -1,-1 0,-0.552285 0.447715,-1 1,-1 0.552284,0 1,0.447715 1,1 z" />
    <circle
       r="1"
       cx="27.082348"
       class="9"
       cy="-69.90934"
       id="circle80"
       sodipodi:cx="27.082348"
       sodipodi:cy="-69.90934"
       sodipodi:rx="1"
       sodipodi:ry="1"
       style="fill:#aeffa2;fill-opacity:1;stroke:#000000;stroke-width:1;stroke-opacity:1"
       d="m 28.082348,-69.90934 c 0,0.552285 -0.447715,1 -1,1 -0.552285,0 -1,-0.447715 -1,-1 0,-0.552285 0.447715,-1 1,-1 0.552285,0 1,0.447715 1,1 z" />
    <circle
       r="1"
       cx="30.295429"
       class="10"
       cy="-81.708725"
       id="circle82"
       sodipodi:cx="30.295429"
       sodipodi:cy="-81.708725"
       sodipodi:rx="1"
       sodipodi:ry="1"
       style="fill:#aeffa2;fill-opacity:1;stroke:#000000;stroke-width:1;stroke-opacity:1"
       d="m 31.295429,-81.708725 c 0,0.552285 -0.447715,1 -1,1 -0.552285,0 -1,-0.447715 -1,-1 0,-0.552285 0.447715,-1 1,-1 0.552285,0 1,0.447715 1,1 z" />
    <circle
       r="1"
       cx="25.34144"
       class="11"
       cy="-53.596684"
       id="circle84"
       sodipodi:cx="25.34144"
       sodipodi:cy="-53.596684"
       sodipodi:rx="1"
       sodipodi:ry="1"
       style="fill:#aeffa2;fill-opacity:1;stroke:#000000;stroke-width:1;stroke-opacity:1"
       d="m 26.34144,-53.596684 c 0,0.552285 -0.447715,1 -1,1 -0.552285,0 -1,-0.447715 -1,-1 0,-0.552284 0.447715,-1 1,-1 0.552285,0 1,0.447716 1,1 z" />
    <circle
       r="1"
       cx="24.095001"
       class="12"
       cy="-40.939289"
       id="circle86"
       sodipodi:cx="24.095001"
       sodipodi:cy="-40.939289"
       sodipodi:rx="1"
       sodipodi:ry="1"
       style="fill:#aeffa2;fill-opacity:1;stroke:#000000;stroke-width:1;stroke-opacity:1"
       d="m 25.095001,-40.939289 c 0,0.552285 -0.447715,1 -1,1 -0.552285,0 -1,-0.447715 -1,-1 0,-0.552285 0.447715,-1 1,-1 0.552285,0 1,0.447715 1,1 z" />
    <circle
       r="1"
       cx="31.714428"
       class="13"
       cy="-91.736984"
       id="circle88"
       sodipodi:cx="31.714428"
       sodipodi:cy="-91.736984"
       sodipodi:rx="1"
       sodipodi:ry="1"
       style="fill:#aeffa2;fill-opacity:1;stroke:#000000;stroke-width:1;stroke-opacity:1"
       d="m 32.714428,-91.736984 c 0,0.552284 -0.447715,1 -1,1 -0.552285,0 -1,-0.447716 -1,-1 0,-0.552285 0.447715,-1 1,-1 0.552285,0 1,0.447715 1,1 z" />
    <circle
       r="1"
       cx="75.421806"
       class="14"
       cy="-49.772655"
       id="circle90"
       sodipodi:cx="75.421806"
       sodipodi:cy="-49.772655"
       sodipodi:rx="1"
       sodipodi:ry="1"
       style="fill:#adceff;fill-opacity:1;stroke:#000000;stroke-width:1;stroke-opacity:1"
       d="m 76.421806,-49.772655 c 0,0.552284 -0.447715,1 -1,1 -0.552284,0 -1,-0.447716 -1,-1 0,-0.552285 0.447716,-1 1,-1 0.552285,0 1,0.447715 1,1 z" />
    <circle
       r="1"
       cx="76.381294"
       class="15"
       cy="-75.348328"
       id="circle92"
       sodipodi:cx="76.381294"
       sodipodi:cy="-75.348328"
       sodipodi:rx="1"
       sodipodi:ry="1"
       style="fill:#adceff;fill-opacity:1;stroke:#000000;stroke-width:1;stroke-opacity:1"
       d="m 77.381294,-75.348328 c 0,0.552285 -0.447715,1 -1,1 -0.552284,0 -1,-0.447715 -1,-1 0,-0.552284 0.447716,-1 1,-1 0.552285,0 1,0.447716 1,1 z" />
    <circle
       r="1"
       cx="71.593086"
       class="16"
       cy="-92.198669"
       id="circle94"
       sodipodi:cx="71.593086"
       sodipodi:cy="-92.198669"
       sodipodi:rx="1"
       sodipodi:ry="1"
       style="fill:#adceff;fill-opacity:1;stroke:#000000;stroke-width:1;stroke-opacity:1"
       d="m 72.593086,-92.198669 c 0,0.552284 -0.447715,1 -1,1 -0.552285,0 -1,-0.447716 -1,-1 0,-0.552285 0.447715,-1 1,-1 0.552285,0 1,0.447715 1,1 z" />
    <circle
       r="1"
       cx="78.533394"
       class="17"
       cy="-110.23264"
       id="circle96"
       sodipodi:cx="78.533394"
       sodipodi:cy="-110.23264"
       sodipodi:rx="1"
       sodipodi:ry="1"
       style="fill:#adceff;fill-opacity:1;stroke:#000000;stroke-width:1;stroke-opacity:1"
       d="m 79.533394,-110.23264 c 0,0.55228 -0.447715,1 -1,1 -0.552285,0 -1,-0.44772 -1,-1 0,-0.55229 0.447715,-1 1,-1 0.552285,0 1,0.44771 1,1 z" />
  </g>
  <text
     xml:space="preserve"
     style="font-size:5.69309282px;font-style:normal;font-weight:normal;line-height:125%;letter-spacing:0px;word-spacing:0px;fill:#000000;fill-opacity:1;stroke:none;font-family:Sans"
     x="52.979691"
     y="-143.70453"
     id="text3079"
     sodipodi:linespacing="125%"><tspan
       sodipodi:role="line"
       id="tspan3081"
       x="52.979691"
       y="-143.70453">ROOT</tspan></text>
  <text
     xml:space="preserve"
     style="font-size:7.37306833px;font-style:normal;font-weight:normal;line-height:125%;letter-spacing:0px;word-spacing:0px;fill:#000000;fill-opacity:1;stroke:none;font-family:Sans"
     x="92.273071"
     y="-124.35249"
     id="text3079-8"
     sodipodi:linespacing="125%"><tspan
       sodipodi:role="line"
       id="tspan3081-5"
       x="92.273071"
       y="-124.35249">MASTER_OBJ</tspan></text>
  <text
     xml:space="preserve"
     style="font-size:7.37306833px;font-style:normal;font-weight:normal;line-height:125%;letter-spacing:0px;word-spacing:0px;fill:#000000;fill-opacity:1;stroke:none;font-family:Sans"
     x="-17.035246"
     y="-124.35249"
     id="text3146"
     sodipodi:linespacing="125%"><tspan
       sodipodi:role="line"
       id="tspan3148"
       x="-17.035246"
       y="-124.35249">MASTER_ATTR</tspan></text>
  <text
     xml:space="preserve"
     style="font-size:4.1906414px;font-style:normal;font-weight:normal;line-height:125%;letter-spacing:0px;word-spacing:0px;fill:#000000;fill-opacity:1;stroke:none;font-family:Sans"
     x="-5.0139346"
     y="-27.51951"
     id="text3146-9"
     sodipodi:linespacing="125%"><tspan
       sodipodi:role="line"
       id="tspan3148-9"
       x="-5.0139346"
       y="-27.51951">ATTRIBUTE</tspan></text>
  <text
     xml:space="preserve"
     style="font-size:4.1906414px;font-style:normal;font-weight:normal;line-height:125%;letter-spacing:0px;word-spacing:0px;fill:#000000;fill-opacity:1;stroke:none;font-family:Sans"
     x="48.070484"
     y="-27.51951"
     id="text3146-9-3"
     sodipodi:linespacing="125%"><tspan
       sodipodi:role="line"
       id="tspan3148-9-2"
       x="48.070484"
       y="-27.51951">RELATED</tspan></text>
  <text
     xml:space="preserve"
     style="font-size:4.1906414px;font-style:normal;font-weight:normal;line-height:125%;letter-spacing:0px;word-spacing:0px;fill:#000000;fill-opacity:1;stroke:none;font-family:Sans"
     x="101.06793"
     y="-27.464262"
     id="text3146-9-1"
     sodipodi:linespacing="125%"><tspan
       sodipodi:role="line"
       id="tspan3148-9-5"
       x="101.06793"
       y="-27.464262">OBJECT</tspan></text>
</svg>
