<?xml version="1.0" encoding="UTF-8" standalone="no"?>
<!DOCTYPE svg PUBLIC "-//W3C//DTD SVG 1.0//EN" "http://www.w3.org/TR/2001/PR-SVG-20010719/DTD/svg10.dtd">
<svg width="6cm" height="8cm" viewBox="-49 -72 104 145" xmlns="http://www.w3.org/2000/svg" xmlns:xlink="http://www.w3.org/1999/xlink">
  <g>
    <ellipse style="fill: #000000" cx="-44.5" cy="0.5" rx="3" ry="3"/>
    <ellipse style="fill: none; fill-opacity:0; stroke-width: 2; stroke: #000000" cx="-44.5" cy="0.5" rx="3" ry="3"/>
  </g>
  <g>
    <ellipse style="fill: #000000" cx="46.3814" cy="-0.5802" rx="3" ry="3"/>
    <ellipse style="fill: none; fill-opacity:0; stroke-width: 2; stroke: #000000" cx="46.3814" cy="-0.5802" rx="3" ry="3"/>
  </g>
  <g>
    <path style="fill: none; fill-opacity:0; stroke-width: 2; stroke: #000000" d="M 47.01,-8.99512 A 46.1731,46.1731 0 1 0 -45.083,-3.44787"/>
    <polyline style="fill: none; fill-opacity:0; stroke-width: 2; stroke: #000000" points="42.8594,-17.1358 47.0482,-6.7698 52.8277,-16.3405 "/>
  </g>
  <g>
    <path style="fill: none; fill-opacity:0; stroke-width: 2; stroke: #000000" d="M 40.879,-7.00463 A 55.8592,55.8592 0 0 0 -42.0947,-2.70021"/>
    <polyline style="fill: none; fill-opacity:0; stroke-width: 2; stroke: #000000" points="32.1685,-9.81134 42.4531,-5.42659 39.7901,-16.2852 "/>
  </g>
  <g>
    <line style="fill: none; fill-opacity:0; stroke-width: 2; stroke: #000000" x1="-40.4951" y1="0.452398" x2="37.9047" y2="-0.479447"/>
    <polyline style="fill: none; fill-opacity:0; stroke-width: 2; stroke: #000000" points="30.2007,4.61247 40.1406,-0.506023 30.0819,-5.38682 "/>
  </g>
  <g>
    <path style="fill: none; fill-opacity:0; stroke-width: 2; stroke: #000000" d="M -41.667,3.32965 A 61.6287,61.6287 0 0 0 40.32,5.32513"/>
    <polyline style="fill: none; fill-opacity:0; stroke-width: 2; stroke: #000000" points="38.3866,14.4556 42.0207,3.88234 31.3816,7.31898 "/>
  </g>
  <g>
    <path style="fill: none; fill-opacity:0; stroke-width: 2; stroke: #000000" d="M -44.9892,4.46074 A 46.1735,46.1735 0 0 0 47.2103,7.81751"/>
    <polyline style="fill: none; fill-opacity:0; stroke-width: 2; stroke: #000000" points="53.2013,15.0222 47.1955,5.59191 43.2547,16.0547 "/>
  </g>
  <text style="fill: #000000;text-anchor:start;font-size:12.8;font-family:sanserif;font-style:normal;font-weight:normal" x="-4.2416" y="-58.93">
    <tspan x="-4.2416" y="-58.93">2</tspan>
  </text>
  <text style="fill: #000000;text-anchor:start;font-size:12.8;font-family:sanserif;font-style:normal;font-weight:normal" x="-4.8666" y="36.17">
    <tspan x="-4.8666" y="36.17">...</tspan>
  </text>
  <text style="fill: #000000;text-anchor:start;font-size:12.8;font-family:sanserif;font-style:normal;font-weight:normal" x="-5.4916" y="69.57">
    <tspan x="-5.4916" y="69.57">2</tspan>
  </text>
  <text style="fill: #000000;text-anchor:start;font-size:12.8;font-family:sanserif;font-style:normal;font-weight:normal" x="-3.2416" y="-29.18">
    <tspan x="-3.2416" y="-29.18">2</tspan>
  </text>
  <text style="fill: #000000;text-anchor:start;font-size:12.8;font-family:sanserif;font-style:normal;font-weight:normal" x="-3.7416" y="-5.18">
    <tspan x="-3.7416" y="-5.18">2</tspan>
  </text>
  <text style="fill: #000000;text-anchor:start;font-size:12.8;font-family:sanserif;font-style:normal;font-weight:normal" x="-4.4916" y="16.32">
    <tspan x="-4.4916" y="16.32">2</tspan>
  </text>
</svg>
