<?xml version="1.0" encoding="UTF-8"?>
<svg xmlns="http://www.w3.org/2000/svg" xmlns:xlink="http://www.w3.org/1999/xlink" width="441pt" height="381pt" viewBox="0 0 441 381" version="1.1">
<g id="surface0">
<rect x="0" y="0" width="441" height="381" style="fill:rgb(100%,100%,100%);fill-opacity:1;stroke:none;"/>
<path style="fill-rule:evenodd;fill:rgb(100%,100%,100%);fill-opacity:1;stroke-width:0.1;stroke-linecap:butt;stroke-linejoin:miter;stroke:rgb(0%,0%,0%);stroke-opacity:1;stroke-miterlimit:10;" d="M 46 24.5 C 46 26.985352 43.985352 29 41.5 29 C 39.014648 29 37 26.985352 37 24.5 C 37 22.014648 39.014648 20 41.5 20 C 43.985352 20 46 22.014648 46 24.5 " transform="matrix(20,0,0,20,-479,-399)"/>
<path style="fill-rule:evenodd;fill:rgb(100%,100%,100%);fill-opacity:1;stroke-width:0.1;stroke-linecap:butt;stroke-linejoin:miter;stroke:rgb(0%,0%,0%);stroke-opacity:1;stroke-miterlimit:10;" d="M 33 24.5 C 33 26.985352 30.985352 29 28.5 29 C 26.014648 29 24 26.985352 24 24.5 C 24 22.014648 26.014648 20 28.5 20 C 30.985352 20 33 22.014648 33 24.5 " transform="matrix(20,0,0,20,-479,-399)"/>
<path style="fill-rule:evenodd;fill:rgb(100%,100%,100%);fill-opacity:1;stroke-width:0.1;stroke-linecap:butt;stroke-linejoin:miter;stroke:rgb(0%,0%,0%);stroke-opacity:1;stroke-miterlimit:10;" d="M 39.5 34.5 C 39.5 36.985352 37.485352 39 35 39 C 32.514648 39 30.5 36.985352 30.5 34.5 C 30.5 32.014648 32.514648 30 35 30 C 37.485352 30 39.5 32.014648 39.5 34.5 " transform="matrix(20,0,0,20,-479,-399)"/>
<path style="fill:none;stroke-width:0.1;stroke-linecap:butt;stroke-linejoin:miter;stroke:rgb(0%,0%,0%);stroke-opacity:1;stroke-miterlimit:10;" d="M 41.5 29 L 38.182031 31.317969 " transform="matrix(20,0,0,20,-479,-399)"/>
<path style="fill:none;stroke-width:0.1;stroke-linecap:butt;stroke-linejoin:miter;stroke:rgb(0%,0%,0%);stroke-opacity:1;stroke-miterlimit:10;" d="M 28.5 29 L 31.817969 31.317969 " transform="matrix(20,0,0,20,-479,-399)"/>
</g>
</svg>
