<?xml version="1.0" encoding="UTF-8" standalone="no"?>
<svg
   xmlns:dc="http://purl.org/dc/elements/1.1/"
   xmlns:cc="http://creativecommons.org/ns#"
   xmlns:rdf="http://www.w3.org/1999/02/22-rdf-syntax-ns#"
   xmlns:svg="http://www.w3.org/2000/svg"
   xmlns="http://www.w3.org/2000/svg"
   xmlns:xlink="http://www.w3.org/1999/xlink"
   xmlns:sodipodi="http://sodipodi.sourceforge.net/DTD/sodipodi-0.dtd"
   xmlns:inkscape="http://www.inkscape.org/namespaces/inkscape"
   width="441pt"
   height="582pt"
   viewBox="0 0 441 582"
   version="1.1"
   id="svg3231"
   inkscape:version="0.47 r22583"
   sodipodi:docname="hierarchy2.pdf">
  <metadata
     id="metadata3258">
    <rdf:RDF>
      <cc:Work
         rdf:about="">
        <dc:format>image/svg+xml</dc:format>
        <dc:type
           rdf:resource="http://purl.org/dc/dcmitype/StillImage" />
        <dc:title></dc:title>
      </cc:Work>
    </rdf:RDF>
  </metadata>
  <defs
     id="defs3256">
    <inkscape:perspective
       sodipodi:type="inkscape:persp3d"
       inkscape:vp_x="0 : 363.75 : 1"
       inkscape:vp_y="0 : 1000 : 0"
       inkscape:vp_z="551.25 : 363.75 : 1"
       inkscape:persp3d-origin="275.625 : 242.5 : 1"
       id="perspective3260" />
    <inkscape:perspective
       id="perspective3270"
       inkscape:persp3d-origin="0.5 : 0.33333333 : 1"
       inkscape:vp_z="1 : 0.5 : 1"
       inkscape:vp_y="0 : 1000 : 0"
       inkscape:vp_x="0 : 0.5 : 1"
       sodipodi:type="inkscape:persp3d" />
    <inkscape:perspective
       id="perspective3298"
       inkscape:persp3d-origin="0.5 : 0.33333333 : 1"
       inkscape:vp_z="1 : 0.5 : 1"
       inkscape:vp_y="0 : 1000 : 0"
       inkscape:vp_x="0 : 0.5 : 1"
       sodipodi:type="inkscape:persp3d" />
    <inkscape:perspective
       id="perspective3411"
       inkscape:persp3d-origin="0.5 : 0.33333333 : 1"
       inkscape:vp_z="1 : 0.5 : 1"
       inkscape:vp_y="0 : 1000 : 0"
       inkscape:vp_x="0 : 0.5 : 1"
       sodipodi:type="inkscape:persp3d" />
  </defs>
  <sodipodi:namedview
     pagecolor="#ffffff"
     bordercolor="#666666"
     borderopacity="1"
     objecttolerance="10"
     gridtolerance="10"
     guidetolerance="10"
     inkscape:pageopacity="0"
     inkscape:pageshadow="2"
     inkscape:window-width="1280"
     inkscape:window-height="709"
     id="namedview3254"
     showgrid="false"
     inkscape:zoom="0.45876894"
     inkscape:cx="-321.928"
     inkscape:cy="352.08975"
     inkscape:window-x="0"
     inkscape:window-y="31"
     inkscape:window-maximized="1"
     inkscape:current-layer="svg3231" />
  <g
     id="surface0">
    <rect
       x="0"
       y="0"
       width="441"
       height="582"
       style="fill:rgb(100%,100%,100%);fill-opacity:1;stroke:none;"
       id="rect3234" />
    <path
       style="fill-rule:evenodd;fill:rgb(100%,100%,100%);fill-opacity:1;stroke-width:0.1;stroke-linecap:butt;stroke-linejoin:miter;stroke:rgb(0%,0%,0%);stroke-opacity:1;stroke-miterlimit:10;"
       d="M 46 24.500041 C 46 26.985197 43.985352 29.000041 41.5 29.000041 C 39.014648 29.000041 37 26.985197 37 24.500041 C 37 22.014689 39.014648 20.000041 41.5 20.000041 C 43.985352 20.000041 46 22.014689 46 24.500041 "
       transform="matrix(20,0,0,20,-479,-258.586755)"
       id="path3236" />
    <path
       style="fill-rule:evenodd;fill:rgb(100%,100%,100%);fill-opacity:1;stroke-width:0.1;stroke-linecap:butt;stroke-linejoin:miter;stroke:rgb(0%,0%,0%);stroke-opacity:1;stroke-miterlimit:10;"
       d="M 33 24.500041 C 33 26.985197 30.985352 29.000041 28.5 29.000041 C 26.014648 29.000041 24 26.985197 24 24.500041 C 24 22.014689 26.014648 20.000041 28.5 20.000041 C 30.985352 20.000041 33 22.014689 33 24.500041 "
       transform="matrix(20,0,0,20,-479,-258.586755)"
       id="path3238" />
    <path
       style="fill-rule:evenodd;fill:rgb(100%,100%,100%);fill-opacity:1;stroke-width:0.1;stroke-linecap:butt;stroke-linejoin:miter;stroke:rgb(0%,0%,0%);stroke-opacity:1;stroke-miterlimit:10;"
       d="M 46 37.500041 C 46 39.985197 43.985352 42.000041 41.5 42.000041 C 39.014648 42.000041 37 39.985197 37 37.500041 C 37 35.014689 39.014648 33.000041 41.5 33.000041 C 43.985352 33.000041 46 35.014689 46 37.500041 "
       transform="matrix(20,0,0,20,-479,-258.586755)"
       id="path3240" />
    <path
       style="fill:none;stroke-width:0.1;stroke-linecap:butt;stroke-linejoin:miter;stroke:rgb(0%,0%,0%);stroke-opacity:1;stroke-miterlimit:10;"
       d="M 41.5 29.049846 L 41.5 33.000041 "
       transform="matrix(20,0,0,20,-479,-258.586755)"
       id="path3242" />
    <path
       style="fill:none;stroke-width:0.1;stroke-linecap:butt;stroke-linejoin:miter;stroke:rgb(0%,0%,0%);stroke-opacity:1;stroke-miterlimit:10;"
       d="M 35 13.000041 L 41.5 20.000041 "
       transform="matrix(20,0,0,20,-479,-258.586755)"
       id="path3244" />
    <path
       style="fill:none;stroke-width:0.1;stroke-linecap:butt;stroke-linejoin:miter;stroke:rgb(0%,0%,0%);stroke-opacity:1;stroke-miterlimit:10;"
       d="M 35 13.000041 L 28.5 20.000041 "
       transform="matrix(20,0,0,20,-479,-258.586755)"
       id="path3246" />
    <path
       style="fill-rule:evenodd;fill:rgb(100%,100%,100%);fill-opacity:1;stroke-width:0.1;stroke-linecap:butt;stroke-linejoin:miter;stroke:rgb(0%,0%,0%);stroke-opacity:1;stroke-miterlimit:10;"
       d="M 33 37.500041 C 33 39.985197 30.985352 42.000041 28.5 42.000041 C 26.014648 42.000041 24 39.985197 24 37.500041 C 24 35.014689 26.014648 33.000041 28.5 33.000041 C 30.985352 33.000041 33 35.014689 33 37.500041 "
       transform="matrix(20,0,0,20,-479,-258.586755)"
       id="path3248" />
    <path
       style="fill:none;stroke-width:0.1;stroke-linecap:butt;stroke-linejoin:miter;stroke:rgb(0%,0%,0%);stroke-opacity:1;stroke-miterlimit:10;"
       d="M 37 37.500041 L 33 37.500041 "
       transform="matrix(20,0,0,20,-479,-258.586755)"
       id="path3250" />
    <path
       style="fill:none;stroke-width:0.1;stroke-linecap:butt;stroke-linejoin:miter;stroke:rgb(0%,0%,0%);stroke-opacity:1;stroke-miterlimit:10;"
       d="M 28.5 29.000041 L 28.5 33.000041 "
       transform="matrix(20,0,0,20,-479,-258.586755)"
       id="path3252" />
  </g>
  <image
     y="78.737312"
     x="85.560768"
     id="image2898"
     height="149.70508"
     width="171.28728"
     xlink:href="file:///home/william/Desktop/ecai_link/src_img/eggs.png"
     transform="matrix(0.89212336,0.45179189,-0.45179189,0.89212336,0,0)" />
  <image
     y="160.79424"
     x="263.78088"
     id="image2912"
     height="93.851463"
     width="176.81615"
     xlink:href="file:///home/william/Desktop/ecai_link/img/fca/inkscape_pasted_image_20120824_203824.png" />
  <text
     xml:space="preserve"
     style="font-size:19.20000076px;font-style:normal;font-weight:normal;fill:#000000;fill-opacity:1;stroke:none;font-family:Bitstream Vera Sans"
     x="46.811092"
     y="304.43719"
     id="text2930"><tspan
       sodipodi:role="line"
       id="tspan2932"
       x="46.811092"
       y="304.43719"
       style="font-size:19.20000076px">laysEggs</tspan></text>
  <text
     xml:space="preserve"
     style="font-size:19.20000076px;font-style:normal;font-weight:normal;fill:#000000;fill-opacity:1;stroke:none;font-family:Bitstream Vera Sans"
     x="305.86685"
     y="299.44269"
     id="text2930-7"><tspan
       sodipodi:role="line"
       id="tspan2932-6"
       x="305.86685"
       y="299.44269"
       style="font-size:19.20000076px">liveYoung</tspan></text>
  <image
     y="419.52505"
     x="287.97562"
     id="image2969"
     height="109.14229"
     width="118.77248"
     xlink:href="file:///home/william/Desktop/ecai_link/img/fca/inkscape_pasted_image_20120824_204701.png" />
  <text
     xml:space="preserve"
     style="font-size:19.20000076px;font-style:normal;font-weight:normal;fill:#000000;fill-opacity:1;stroke:none;font-family:Bitstream Vera Sans"
     x="302.66422"
     y="550.8233"
     id="text2981"><tspan
       sodipodi:role="line"
       id="tspan2983"
       x="302.66422"
       y="550.8233">warmBlood</tspan></text>
  <image
     y="415.98935"
     x="8.542778"
     id="image3413"
     height="105.23904"
     width="163.39748"
     xlink:href="file:///home/william/Desktop/ecai_link/img/fca/inkscape_pasted_image_20120824_210614.png" />
  <text
     xml:space="preserve"
     style="font-size:25.60000038px;font-style:normal;font-weight:normal;fill:#000000;fill-opacity:1;stroke:none;font-family:Bitstream Vera Sans"
     x="40.979237"
     y="557.58685"
     id="text3417"><tspan
       sodipodi:role="line"
       id="tspan3419"
       x="40.979237"
       y="557.58685">Echnida</tspan></text>
</svg>
