<?xml version="1.0" encoding="UTF-8" standalone="no"?>
<!DOCTYPE svg PUBLIC "-//W3C//DTD SVG 1.0//EN" "http://www.w3.org/TR/2001/PR-SVG-20010719/DTD/svg10.dtd">
<svg width="143cm" height="85cm" viewBox="-364 -804 2847 1687" xmlns="http://www.w3.org/2000/svg" xmlns:xlink="http://www.w3.org/1999/xlink">
  <g>
    <rect style="fill: #ffffff" x="-360" y="-800" width="2840" height="1680"/>
    <rect style="fill: none; fill-opacity:0; stroke-width: 6; stroke: #000000" x="-360" y="-800" width="2840" height="1680"/>
  </g>
  <g>
    <path style="fill: #c7e2eb" d="M -260 -400 C -260,-320 -260,160 -260,20 C 160,360 1080,300 1720,240 C 1720,180 1160,80 1160,40 C 720,140 920,-280 680,-360 C 348.979,-470.34 160,-460 -260,-400z"/>
    <path style="fill: none; fill-opacity:0; stroke-width: 2; stroke-dasharray: 4; stroke: #eeecec" d="M -260 -400 C -260,-320 -260,160 -260,20 C 160,360 1080,300 1720,240 C 1720,180 1160,80 1160,40 C 720,140 920,-280 680,-360 C 348.979,-470.34 160,-460 -260,-400"/>
  </g>
  <g>
    <path style="fill: #ffd88f" d="M -260 480 C -260,440 -260,160 -260,20 C 140,-40 440,0 520,40 C 600,80 720,320 2400,280 C 2400,400 2400,440 2400,480 C 2380,480 -180,480 -260,480z"/>
    <path style="fill: none; fill-opacity:0; stroke-width: 2; stroke-dasharray: 4; stroke: #eeecec" d="M -260 480 C -260,440 -260,160 -260,20 C 140,-40 440,0 520,40 C 600,80 720,320 2400,280 C 2400,400 2400,440 2400,480 C 2380,480 -180,480 -260,480"/>
  </g>
  <g>
    <path style="fill: #b6f6b6" d="M -260 -380 C -260,-300 -260,-500 -260,-640 C -40,-640 2280,-640 2400,-640 C 2400,-540 2400,200 2400,280 C 800,360 480,320 472.75,-171.5 C 468.646,-449.729 420,-380 -260,-380z"/>
    <path style="fill: none; fill-opacity:0; stroke-width: 2; stroke-dasharray: 4; stroke: #eeecec" d="M -260 -380 C -260,-300 -260,-500 -260,-640 C -40,-640 2280,-640 2400,-640 C 2400,-540 2400,200 2400,280 C 800,360 480,320 472.75,-171.5 C 468.646,-449.729 420,-380 -260,-380"/>
  </g>
  <rect style="fill: none; fill-opacity:0; stroke-width: 2; stroke: #000000" x="-120" y="-640" width="2380" height="1120"/>
  <rect style="fill: none; fill-opacity:0; stroke-width: 2; stroke: #000000" x="2260" y="-640" width="140" height="1120"/>
  <g>
    <g>
      <g>
        <polygon style="fill: #ffffff" points="620,680 740,680 800,770 560,770 "/>
        <polygon style="fill: none; fill-opacity:0; stroke-width: 2; stroke: #000000" points="620,680 740,680 800,770 560,770 "/>
        <polygon style="fill: none; fill-opacity:0; stroke-width: 2; stroke: #000000" points="620,680 740,680 800,770 560,770 "/>
      </g>
      <g>
        <polygon style="fill: #ffffff" points="635,680 725,680 770,770 590,770 "/>
        <polygon style="fill: none; fill-opacity:0; stroke-width: 2; stroke: #000000" points="635,680 725,680 770,770 590,770 "/>
        <polygon style="fill: none; fill-opacity:0; stroke-width: 2; stroke: #000000" points="635,680 725,680 770,770 590,770 "/>
      </g>
      <g>
        <polygon style="fill: #ffffff" points="650,680 710,680 740,770 620,770 "/>
        <polygon style="fill: none; fill-opacity:0; stroke-width: 2; stroke: #000000" points="650,680 710,680 740,770 620,770 "/>
        <polygon style="fill: none; fill-opacity:0; stroke-width: 2; stroke: #000000" points="650,680 710,680 740,770 620,770 "/>
      </g>
      <g>
        <polygon style="fill: #ffffff" points="665,680 695,680 710,770 650,770 "/>
        <polygon style="fill: none; fill-opacity:0; stroke-width: 2; stroke: #000000" points="665,680 695,680 710,770 650,770 "/>
        <polygon style="fill: none; fill-opacity:0; stroke-width: 2; stroke: #000000" points="665,680 695,680 710,770 650,770 "/>
      </g>
      <line style="fill: none; fill-opacity:0; stroke-width: 2; stroke: #000000" x1="787.187" y1="751.5" x2="572.219" y2="751.5"/>
      <line style="fill: none; fill-opacity:0; stroke-width: 2; stroke: #000000" x1="777.063" y1="735.5" x2="583.5" y2="735.5"/>
      <line style="fill: none; fill-opacity:0; stroke-width: 2; stroke: #000000" x1="768.843" y1="722.5" x2="591.5" y2="722.5"/>
      <line style="fill: none; fill-opacity:0; stroke-width: 2; stroke: #000000" x1="760.999" y1="710.5" x2="599.188" y2="710.5"/>
      <line style="fill: none; fill-opacity:0; stroke-width: 2; stroke: #000000" x1="753.719" y1="700.5" x2="606.469" y2="700.5"/>
      <line style="fill: none; fill-opacity:0; stroke-width: 2; stroke: #000000" x1="747.969" y1="692" x2="611.719" y2="692"/>
      <line style="fill: none; fill-opacity:0; stroke-width: 2; stroke: #000000" x1="743.969" y1="685.5" x2="615" y2="685.5"/>
      <line style="fill: none; fill-opacity:0; stroke-width: 2; stroke: #000000" x1="679.999" y1="770" x2="680" y2="680"/>
    </g>
    <g>
      <ellipse style="fill: #ffffff" cx="669.593" cy="716.376" rx="7.25" ry="2.75"/>
      <ellipse style="fill: none; fill-opacity:0; stroke-width: 2; stroke: #000000" cx="669.593" cy="716.376" rx="7.25" ry="2.75"/>
    </g>
    <g>
      <ellipse style="fill: #000000" cx="690.469" cy="716.324" rx="7.25" ry="2.75"/>
      <ellipse style="fill: none; fill-opacity:0; stroke-width: 2; stroke: #000000" cx="690.469" cy="716.324" rx="7.25" ry="2.75"/>
    </g>
    <g>
      <ellipse style="fill: #000000" cx="670.47" cy="705.375" rx="5.8125" ry="2.375"/>
      <ellipse style="fill: none; fill-opacity:0; stroke-width: 2; stroke: #000000" cx="670.47" cy="705.375" rx="5.8125" ry="2.375"/>
    </g>
    <g>
      <ellipse style="fill: #ffffff" cx="689.406" cy="705.449" rx="5.8125" ry="2.375"/>
      <ellipse style="fill: none; fill-opacity:0; stroke-width: 2; stroke: #000000" cx="689.406" cy="705.449" rx="5.8125" ry="2.375"/>
    </g>
  </g>
  <g>
    <text style="fill: #000000;text-anchor:start;font-size:39.5111;font-family:sanserif;font-style:normal;font-weight:normal" x="999.999" y="700">
      <tspan x="999.999" y="700">_</tspan>
    </text>
    <g>
      <ellipse style="fill: none; fill-opacity:0; stroke-width: 2; stroke: #000000" cx="922.929" cy="707.678" rx="30" ry="30"/>
      <text style="fill: #000000;text-anchor:start;font-size:12.8;font-family:sanserif;font-style:normal;font-weight:normal" x="922.929" y="707.678">
        <tspan x="922.929" y="707.678"></tspan>
      </text>
      <text style="fill: #000000;text-anchor:start;font-size:12.8;font-family:sanserif;font-style:normal;font-weight:normal" x="922.929" y="707.678">
        <tspan x="922.929" y="707.678"></tspan>
      </text>
      <text style="fill: #000000;text-anchor:start;font-size:39.5111;font-family:sanserif;font-style:normal;font-weight:normal" x="906.565" y="719.798">
        <tspan x="906.565" y="719.798">+</tspan>
      </text>
      <ellipse style="fill: none; fill-opacity:0; stroke-width: 2; stroke: #000000" cx="1009.29" cy="705.556" rx="30" ry="30"/>
      <text style="fill: #000000;text-anchor:start;font-size:12.8;font-family:sanserif;font-style:normal;font-weight:normal" x="1009.29" y="705.556">
        <tspan x="1009.29" y="705.556"></tspan>
      </text>
      <text style="fill: #000000;text-anchor:start;font-size:12.8;font-family:sanserif;font-style:normal;font-weight:normal" x="1009.29" y="705.556">
        <tspan x="1009.29" y="705.556"></tspan>
      </text>
    </g>
  </g>
  <text style="fill: #000000;text-anchor:start;font-size:28.2222;font-family:sanserif;font-style:normal;font-weight:normal" x="925.857" y="767.072">
    <tspan x="925.857" y="767.072">Coach</tspan>
  </text>
  <rect style="fill: none; fill-opacity:0; stroke-width: 2; stroke: #000000" x="-260" y="-640" width="140" height="1120"/>
  <g>
    <g>
      <rect style="fill: #ffffff" x="920" y="-40" width="420" height="200"/>
      <rect style="fill: none; fill-opacity:0; stroke-width: 2; stroke: #000000" x="920" y="-40" width="420" height="200"/>
    </g>
    <text style="fill: #000000;text-anchor:start;font-size:28.2222;font-family:sanserif;font-style:normal;font-weight:normal" x="980" y="0">
      <tspan x="980" y="0">Mémoire Sémantique</tspan>
    </text>
    <text style="fill: #000000;text-anchor:start;font-size:16.9333;font-family:sanserif;font-style:normal;font-weight:normal" x="931.716" y="40">
      <tspan x="931.716" y="40">Treilli(s) de Gallois</tspan>
    </text>
    <text style="fill: #000000;text-anchor:start;font-size:16.9333;font-family:sanserif;font-style:normal;font-weight:normal" x="940" y="80">
      <tspan x="940" y="80">Paramètres : </tspan>
      <tspan x="940" y="101.167">  - capacité de stockage (quantité)</tspan>
      <tspan x="940" y="122.333">  - capacité à se souvenir (temps)</tspan>
    </text>
  </g>
  <text style="fill: #000000;text-anchor:middle;font-size:28.2222;font-family:sanserif;font-style:normal;font-weight:normal" x="1420" y="700">
    <tspan x="1420" y="700">Coordonnées</tspan>
    <tspan x="1420" y="735.278">(x,y)</tspan>
  </text>
  <text style="fill: #000000;text-anchor:middle;font-size:28.2222;font-family:sanserif;font-style:normal;font-weight:normal" x="-100" y="580">
    <tspan x="-100" y="580">M</tspan>
    <tspan x="-100" y="615.278">A</tspan>
    <tspan x="-100" y="650.556">T</tspan>
    <tspan x="-100" y="685.833">R</tspan>
    <tspan x="-100" y="721.111">I</tspan>
    <tspan x="-100" y="756.389">C</tspan>
    <tspan x="-100" y="791.667">E</tspan>
    <tspan x="-100" y="826.944">S</tspan>
  </text>
  <text style="fill: #000000;text-anchor:middle;font-size:22.5778;font-family:sanserif;font-style:normal;font-weight:normal" x="-57.5736" y="563.432">
    <tspan x="-57.5736" y="563.432">C</tspan>
    <tspan x="-57.5736" y="591.654">O</tspan>
    <tspan x="-57.5736" y="619.876">O</tspan>
    <tspan x="-57.5736" y="648.099">R</tspan>
    <tspan x="-57.5736" y="676.321">D</tspan>
    <tspan x="-57.5736" y="704.543">O</tspan>
    <tspan x="-57.5736" y="732.765">N</tspan>
    <tspan x="-57.5736" y="760.988">N</tspan>
    <tspan x="-57.5736" y="789.21">É</tspan>
    <tspan x="-57.5736" y="817.432">E</tspan>
    <tspan x="-57.5736" y="845.654">S</tspan>
  </text>
  <text style="fill: #000000;text-anchor:middle;font-size:28.2222;font-family:sanserif;font-style:normal;font-weight:normal" x="-187.2" y="161.28">
    <tspan x="-187.2" y="161.28">M</tspan>
    <tspan x="-187.2" y="196.558">A</tspan>
    <tspan x="-187.2" y="231.836">T</tspan>
    <tspan x="-187.2" y="267.113">R</tspan>
    <tspan x="-187.2" y="302.391">I</tspan>
    <tspan x="-187.2" y="337.669">C</tspan>
    <tspan x="-187.2" y="372.947">E</tspan>
    <tspan x="-187.2" y="408.224">S</tspan>
  </text>
  <g>
    <text style="fill: #000000;text-anchor:middle;font-size:28.2222;font-family:sanserif;font-style:normal;font-weight:normal" x="-207.2" y="-310.56">
      <tspan x="-207.2" y="-310.56">C</tspan>
      <tspan x="-207.2" y="-275.282">O</tspan>
      <tspan x="-207.2" y="-240.004">N</tspan>
      <tspan x="-207.2" y="-204.727">C</tspan>
      <tspan x="-207.2" y="-169.449">E</tspan>
      <tspan x="-207.2" y="-134.171">P</tspan>
      <tspan x="-207.2" y="-98.8933">T</tspan>
      <tspan x="-207.2" y="-63.6156">S</tspan>
    </text>
    <text style="fill: #000000;text-anchor:middle;font-size:28.2222;font-family:sanserif;font-style:normal;font-weight:normal" x="-167.2" y="-290.56">
      <tspan x="-167.2" y="-290.56">D</tspan>
      <tspan x="-167.2" y="-255.282">E</tspan>
      <tspan x="-167.2" y="-220.004"></tspan>
      <tspan x="-167.2" y="-184.727">B</tspan>
      <tspan x="-167.2" y="-149.449">A</tspan>
      <tspan x="-167.2" y="-114.171">S</tspan>
      <tspan x="-167.2" y="-78.8933">E</tspan>
    </text>
  </g>
  <g>
    <path style="fill: none; fill-opacity:0; stroke-width: 2; stroke: #000000" d="M 600 660 C 520,620 320,640 240,600 C 160,560 200,440 200,409.736"/>
    <polygon style="fill: #000000" points="200,402.236 205,412.236 200,409.736 195,412.236 "/>
    <polygon style="fill: none; fill-opacity:0; stroke-width: 2; stroke: #000000" points="200,402.236 205,412.236 200,409.736 195,412.236 "/>
  </g>
  <g>
    <path style="fill: none; fill-opacity:0; stroke-width: 2; stroke: #000000" d="M 960 660 C 920,580 503.825,676.852 440,560 C 376.175,443.148 540,260 405.583,67.9761"/>
    <polygon style="fill: #000000" points="401.282,61.8319 411.113,67.1569 405.583,67.9761 402.921,72.8915 "/>
    <polygon style="fill: none; fill-opacity:0; stroke-width: 2; stroke: #000000" points="401.282,61.8319 411.113,67.1569 405.583,67.9761 402.921,72.8915 "/>
  </g>
  <g>
    <rect style="fill: #ffffff" x="60" y="449.29" width="420" height="60"/>
    <rect style="fill: none; fill-opacity:0; stroke-width: 2; stroke-dasharray: 4; stroke: #000000" x="60" y="449.29" width="420" height="60"/>
  </g>
  <text style="fill: #000000;text-anchor:start;font-size:28.2222;font-family:sanserif;font-style:normal;font-weight:normal" x="202.822" y="489.29">
    <tspan x="202.822" y="489.29">ENTREES</tspan>
  </text>
  <text style="fill: #000000;text-anchor:start;font-size:16.9333;font-family:sanserif;font-style:normal;font-weight:normal" x="520" y="-200">
    <tspan x="520" y="-200"></tspan>
  </text>
  <text style="fill: #000000;text-anchor:start;font-size:12.8;font-family:sanserif;font-style:normal;font-weight:normal" x="1800" y="160">
    <tspan x="1800" y="160">Choix final</tspan>
    <tspan x="1800" y="176">(concept choisi)</tspan>
  </text>
  <g>
    <g>
      <rect style="fill: #ffffff" x="920" y="-323.431" width="420" height="140"/>
      <rect style="fill: none; fill-opacity:0; stroke-width: 2; stroke: #000000" x="920" y="-323.431" width="420" height="140"/>
    </g>
    <text style="fill: #000000;text-anchor:start;font-size:28.2222;font-family:sanserif;font-style:normal;font-weight:normal" x="994.142" y="-283.431">
      <tspan x="994.142" y="-283.431">Mémoire primaire</tspan>
    </text>
    <text style="fill: #000000;text-anchor:start;font-size:16.9333;font-family:sanserif;font-style:normal;font-weight:normal" x="945.858" y="-243.431">
      <tspan x="945.858" y="-243.431">Mémoire temporaire (== buffer)</tspan>
      <tspan x="945.858" y="-222.265">Contient les concepts auxquels l'IA est en</tspan>
      <tspan x="945.858" y="-201.098">train de "penser".</tspan>
    </text>
  </g>
  <g>
    <g>
      <polygon style="fill: none; fill-opacity:0; stroke-width: 2; stroke: #000000" points="1020,-184 1020,-112 1000,-112 1040,-40 1080,-112 1060,-112 1060,-184 "/>
      <polygon style="fill: none; fill-opacity:0; stroke-width: 2; stroke: #000000" points="1020,-184 1020,-112 1000,-112 1040,-40 1080,-112 1060,-112 1060,-184 "/>
    </g>
    <text style="fill: #000000;text-anchor:start;font-size:16.9333;font-family:sanserif;font-style:normal;font-weight:700" x="1032.73" y="-149.9">
      <tspan x="1032.73" y="-149.9">Q</tspan>
      <tspan x="1032.73" y="-128.733">U</tspan>
      <tspan x="1032.73" y="-107.567">E</tspan>
      <tspan x="1032.73" y="-86.4">R</tspan>
      <tspan x="1032.73" y="-65.2333">Y</tspan>
    </text>
  </g>
  <g>
    <g>
      <polygon style="fill: none; fill-opacity:0; stroke-width: 2; stroke-dasharray: 4; stroke: #000000" points="1200,-40 1200,-110 1180,-110 1220,-180 1260,-110 1240,-110 1240,-40 "/>
      <polygon style="fill: none; fill-opacity:0; stroke-width: 2; stroke-dasharray: 4; stroke: #000000" points="1200,-40 1200,-110 1180,-110 1220,-180 1260,-110 1240,-110 1240,-40 "/>
    </g>
    <text style="fill: #000000;text-anchor:middle;font-size:11.2889;font-family:sanserif;font-style:normal;font-weight:700" x="1219.8" y="-144.95">
      <tspan x="1219.8" y="-144.95">R</tspan>
      <tspan x="1219.8" y="-130.839">E</tspan>
      <tspan x="1219.8" y="-116.728">S</tspan>
      <tspan x="1219.8" y="-102.617">P</tspan>
      <tspan x="1219.8" y="-88.5056">O</tspan>
      <tspan x="1219.8" y="-74.3944">N</tspan>
      <tspan x="1219.8" y="-60.2833">S</tspan>
      <tspan x="1219.8" y="-46.1722">E</tspan>
    </text>
  </g>
  <text style="fill: #000000;text-anchor:start;font-size:12.8;font-family:sanserif;font-style:normal;font-weight:normal" x="760" y="-520">
    <tspan x="760" y="-520">Ensemble de</tspan>
    <tspan x="760" y="-504">concepts poussés</tspan>
  </text>
  <g>
    <path style="fill: none; fill-opacity:0; stroke-width: 16; stroke: #7c333b" d="M 442.043 -267.404 C 560,-200 780,-80 918.471,-166.544"/>
    <polygon style="fill: #7c333b" points="435.532,-271.125 446.695,-270.505 442.043,-267.404 441.733,-261.822 "/>
    <polygon style="fill: none; fill-opacity:0; stroke-width: 16; stroke: #7c333b" points="435.532,-271.125 446.695,-270.505 442.043,-267.404 441.733,-261.822 "/>
    <polygon style="fill: #7c333b" points="924.831,-170.519 919.001,-160.979 918.471,-166.544 913.701,-169.459 "/>
    <polygon style="fill: none; fill-opacity:0; stroke-width: 16; stroke: #7c333b" points="924.831,-170.519 919.001,-160.979 918.471,-166.544 913.701,-169.459 "/>
  </g>
  <g>
    <path style="fill: none; fill-opacity:0; stroke-width: 30; stroke: #72c082" d="M 286.337 -494.366 C 506.337,-614.366 1246.43,-648.48 1529.51,-471.557"/>
    <polygon style="fill: #ffffff" points="1526.86,-467.317 1537.99,-466.257 1532.16,-475.797 "/>
    <polygon style="fill: none; fill-opacity:0; stroke-width: 30; stroke: #72c082" points="1526.86,-467.317 1537.99,-466.257 1532.16,-475.797 "/>
  </g>
  <text style="fill: #ffffff;text-anchor:start;font-size:16.9333;font-family:sanserif;font-style:normal;font-weight:700" x="823.84" y="-587.68">
    <tspan x="823.84" y="-587.68">Stimulation</tspan>
  </text>
  <g>
    <path style="fill: none; fill-opacity:0; stroke-width: 16; stroke: #7c333b" d="M 1651.21 -16.2689 C 1540,-40.8 1460,-180 1364.09,-211.971"/>
    <polygon style="fill: #7c333b" points="1658.53,-14.6534 1647.69,-11.9248 1651.21,-16.2689 1649.84,-21.6901 "/>
    <polygon style="fill: none; fill-opacity:0; stroke-width: 16; stroke: #7c333b" points="1658.53,-14.6534 1647.69,-11.9248 1651.21,-16.2689 1649.84,-21.6901 "/>
    <polygon style="fill: #7c333b" points="1356.97,-214.343 1368.04,-215.924 1364.09,-211.971 1364.88,-206.437 "/>
    <polygon style="fill: none; fill-opacity:0; stroke-width: 16; stroke: #7c333b" points="1356.97,-214.343 1368.04,-215.924 1364.09,-211.971 1364.88,-206.437 "/>
  </g>
  <g>
    <path style="fill: none; fill-opacity:0; stroke-width: 16; stroke: #7c333b" d="M 1592.23 -299.715 C 1536,-320.8 1440,-270 1365.26,-277.474"/>
    <polygon style="fill: #7c333b" points="1599.25,-297.081 1588.13,-295.911 1592.23,-299.715 1591.64,-305.274 "/>
    <polygon style="fill: none; fill-opacity:0; stroke-width: 16; stroke: #7c333b" points="1599.25,-297.081 1588.13,-295.911 1592.23,-299.715 1591.64,-305.274 "/>
    <polygon style="fill: #7c333b" points="1357.8,-278.22 1368.25,-282.2 1365.26,-277.474 1367.25,-272.25 "/>
    <polygon style="fill: none; fill-opacity:0; stroke-width: 16; stroke: #7c333b" points="1357.8,-278.22 1368.25,-282.2 1365.26,-277.474 1367.25,-272.25 "/>
  </g>
  <g>
    <polygon style="fill: #ffffff" points="1837.94,-72.2286 1855.09,-100.8 1820.8,-100.8 "/>
    <polygon style="fill: none; fill-opacity:0; stroke-width: 2; stroke: #000000" points="1837.94,-72.2286 1855.09,-100.8 1820.8,-100.8 "/>
    <polygon style="fill: none; fill-opacity:0; stroke-width: 0.2; stroke: #000000" points="1837.94,-72.2286 1855.09,-100.8 1820.8,-100.8 "/>
    <ellipse style="fill: #ffffff" cx="1837.94" cy="-66.5143" rx="5.71429" ry="5.71429"/>
    <ellipse style="fill: none; fill-opacity:0; stroke-width: 2; stroke: #000000" cx="1837.94" cy="-66.5143" rx="5.71429" ry="5.71429"/>
    <ellipse style="fill: none; fill-opacity:0; stroke-width: 0.2; stroke: #000000" cx="1837.94" cy="-66.5143" rx="5.71429" ry="5.71429"/>
  </g>
  <line style="fill: none; fill-opacity:0; stroke-width: 2; stroke: #000000" x1="1838" y1="-220.8" x2="1837.95" y2="-101.797"/>
  <text style="fill: #000000;text-anchor:start;font-size:12.8;font-family:sanserif;font-style:normal;font-weight:normal" x="1856" y="-160.8">
    <tspan x="1856" y="-160.8">Capacité</tspan>
    <tspan x="1856" y="-144.8">d'inhibition</tspan>
  </text>
  <g>
    <g>
      <rect style="fill: #ffffff" x="1676" y="-60.8" width="320" height="100"/>
      <rect style="fill: none; fill-opacity:0; stroke-width: 2; stroke: #000000" x="1676" y="-60.8" width="320" height="100"/>
    </g>
    <text style="fill: #000000;text-anchor:start;font-size:28.2222;font-family:sanserif;font-style:normal;font-weight:normal" x="1716" y="-20.8">
      <tspan x="1716" y="-20.8">Prise de décision</tspan>
    </text>
    <text style="fill: #000000;text-anchor:start;font-size:16.9333;font-family:sanserif;font-style:normal;font-weight:normal" x="1703.14" y="19.2">
      <tspan x="1703.14" y="19.2">Choix conscient</tspan>
    </text>
  </g>
  <g>
    <g>
      <rect style="fill: #ffffff" x="1600" y="240" width="280" height="140"/>
      <rect style="fill: none; fill-opacity:0; stroke-width: 2; stroke: #000000" x="1600" y="240" width="280" height="140"/>
    </g>
    <text style="fill: #000000;text-anchor:start;font-size:28.2222;font-family:sanserif;font-style:normal;font-weight:normal" x="1660" y="280">
      <tspan x="1660" y="280">Formattage</tspan>
    </text>
    <text style="fill: #000000;text-anchor:start;font-size:16.9333;font-family:sanserif;font-style:normal;font-weight:normal" x="1611.72" y="320">
      <tspan x="1611.72" y="320">Converti le choix en format </tspan>
      <tspan x="1611.72" y="341.167">compréhensible par l'envi-</tspan>
      <tspan x="1611.72" y="362.333">ronnement</tspan>
    </text>
  </g>
  <g>
    <path style="fill: none; fill-opacity:0; stroke-width: 2; stroke: #000000" d="M 1836 39.2 C 1836,179.2 1740,120 1740,230.264"/>
    <polygon style="fill: #000000" points="1740,237.764 1735,227.764 1740,230.264 1745,227.764 "/>
    <polygon style="fill: none; fill-opacity:0; stroke-width: 2; stroke: #000000" points="1740,237.764 1735,227.764 1740,230.264 1745,227.764 "/>
  </g>
  <g>
    <path style="fill: none; fill-opacity:0; stroke-width: 2; stroke: #000000" d="M 1740 380 C 1740,520 1640,720 1549.74,720"/>
    <polygon style="fill: #000000" points="1542.24,720 1552.24,715 1549.74,720 1552.24,725 "/>
    <polygon style="fill: none; fill-opacity:0; stroke-width: 2; stroke: #000000" points="1542.24,720 1552.24,715 1549.74,720 1552.24,725 "/>
  </g>
  <g>
    <g>
      <rect style="fill: #ffffff" x="1620" y="440" width="220" height="60"/>
      <rect style="fill: none; fill-opacity:0; stroke-width: 2; stroke-dasharray: 4; stroke: #000000" x="1620" y="440" width="220" height="60"/>
    </g>
    <text style="fill: #000000;text-anchor:start;font-size:28.2222;font-family:sanserif;font-style:normal;font-weight:normal" x="1671.31" y="480">
      <tspan x="1671.31" y="480">SORTIES</tspan>
    </text>
  </g>
  <text style="fill: #000000;text-anchor:start;font-size:12.8;font-family:sanserif;font-style:normal;font-weight:normal" x="1760" y="400">
    <tspan x="1760" y="400">Choix final converti</tspan>
    <tspan x="1760" y="416">(coordonnées)</tspan>
  </text>
  <text style="fill: #000000;text-anchor:start;font-size:22.5778;font-family:sanserif;font-style:normal;font-weight:700" x="815.147" y="720">
    <tspan x="815.147" y="720">OU</tspan>
  </text>
  <text style="fill: #000000;text-anchor:start;font-size:50.7992;font-family:sanserif;font-style:normal;font-weight:normal" x="800" y="-720">
    <tspan x="800" y="-720">Conscience Artificielle</tspan>
  </text>
  <text style="fill: #868686;text-anchor:start;font-size:12.7998;font-family:sanserif;font-style:normal;font-weight:normal" x="2040" y="800">
    <tspan x="2040" y="800">Projet TER Université Montpellier 2</tspan>
    <tspan x="2040" y="816">William Dyce, Thibaut Marmin, Namrata Patel, Clément Sipieter</tspan>
    <tspan x="2040" y="832">Encadrants : Violaine Prince, Guillaume Tisserant</tspan>
    <tspan x="2040" y="848">https://github.com/marminthibaut/artificial_consciousness</tspan>
    <tspan x="2040" y="864"></tspan>
  </text>
  <g>
    <path style="fill: none; fill-opacity:0; stroke-width: 2; stroke: #000000" d="M 420 -460 C 780,-560 940,-460 958.623,-329.638"/>
    <polygon style="fill: #000000" points="959.684,-322.214 953.32,-331.406 958.623,-329.638 963.219,-332.82 "/>
    <polygon style="fill: none; fill-opacity:0; stroke-width: 2; stroke: #000000" points="959.684,-322.214 953.32,-331.406 958.623,-329.638 963.219,-332.82 "/>
  </g>
  <g>
    <path style="fill: none; fill-opacity:0; stroke-width: 2; stroke: #000000" d="M 420 -420 C 800,-460 800,-420 913.116,-306.884"/>
    <polygon style="fill: #000000" points="918.419,-301.581 907.812,-305.117 913.116,-306.884 914.883,-312.188 "/>
    <polygon style="fill: none; fill-opacity:0; stroke-width: 2; stroke: #000000" points="918.419,-301.581 907.812,-305.117 913.116,-306.884 914.883,-312.188 "/>
  </g>
  <g>
    <path style="fill: none; fill-opacity:0; stroke-width: 2; stroke: #000000" d="M 420 -440 C 900,-560 920,-340 933.116,-326.884"/>
    <polygon style="fill: #000000" points="938.419,-321.581 927.812,-325.117 933.116,-326.884 934.883,-332.188 "/>
    <polygon style="fill: none; fill-opacity:0; stroke-width: 2; stroke: #000000" points="938.419,-321.581 927.812,-325.117 933.116,-326.884 934.883,-332.188 "/>
  </g>
  <g>
    <path style="fill: none; fill-opacity:0; stroke-width: 2; stroke: #000000" d="M 420 -400 C 720,-440 800,-400 913.116,-286.884"/>
    <polygon style="fill: #000000" points="918.419,-281.581 907.812,-285.117 913.116,-286.884 914.883,-292.188 "/>
    <polygon style="fill: none; fill-opacity:0; stroke-width: 2; stroke: #000000" points="918.419,-281.581 907.812,-285.117 913.116,-286.884 914.883,-292.188 "/>
  </g>
  <text style="fill: #000000;text-anchor:start;font-size:22.5778;font-family:sanserif;font-style:normal;font-weight:700" x="680" y="-451.04">
    <tspan x="680" y="-451.04">...</tspan>
  </text>
  <g>
    <path style="fill: none; fill-opacity:0; stroke-width: 2; stroke: #000000" d="M 420 -320 C 660,-280 520,-220 910.264,-220"/>
    <polygon style="fill: #000000" points="917.764,-220 907.764,-215 910.264,-220 907.764,-225 "/>
    <polygon style="fill: none; fill-opacity:0; stroke-width: 2; stroke: #000000" points="917.764,-220 907.764,-215 910.264,-220 907.764,-225 "/>
  </g>
  <text style="fill: #000000;text-anchor:start;font-size:12.8;font-family:sanserif;font-style:normal;font-weight:normal" x="620" y="-300">
    <tspan x="620" y="-300">Score </tspan>
    <tspan x="620" y="-284">de fin </tspan>
    <tspan x="620" y="-268">de partie</tspan>
  </text>
  <g>
    <path style="fill: none; fill-opacity:0; stroke-width: 2; stroke: #000000" d="M 420 -360 C 820,-360 680,-240 910.264,-240"/>
    <polygon style="fill: #000000" points="917.764,-240 907.764,-235 910.264,-240 907.764,-245 "/>
    <polygon style="fill: none; fill-opacity:0; stroke-width: 2; stroke: #000000" points="917.764,-240 907.764,-235 910.264,-240 907.764,-245 "/>
  </g>
  <text style="fill: #000000;text-anchor:start;font-size:12.8;font-family:sanserif;font-style:normal;font-weight:normal" x="660" y="-360">
    <tspan x="660" y="-360">COACH</tspan>
  </text>
  <text style="fill: #000000;text-anchor:start;font-size:22.5778;font-family:sanserif;font-style:normal;font-weight:700" x="600" y="-380">
    <tspan x="600" y="-380">OU</tspan>
  </text>
  <text style="fill: #000000;text-anchor:start;font-size:22.5778;font-family:sanserif;font-style:normal;font-weight:700" x="560" y="-320">
    <tspan x="560" y="-320">OU</tspan>
  </text>
  <g>
    <g>
      <rect style="fill: #ffffff" x="100" y="-480" width="320" height="220"/>
      <rect style="fill: none; fill-opacity:0; stroke-width: 2; stroke: #000000" x="100" y="-480" width="320" height="220"/>
    </g>
    <text style="fill: #000000;text-anchor:middle;font-size:28.2222;font-family:sanserif;font-style:normal;font-weight:normal" x="260" y="-440">
      <tspan x="260" y="-440">Analyseur conceptuel</tspan>
      <tspan x="260" y="-404.722">sémantique</tspan>
    </text>
    <text style="fill: #000000;text-anchor:start;font-size:16.9333;font-family:sanserif;font-style:normal;font-weight:normal" x="120" y="-340">
      <tspan x="120" y="-340">Convertit les concepts de base en</tspan>
      <tspan x="120" y="-318.833">concept poussés</tspan>
    </text>
  </g>
  <g>
    <text style="fill: #000000;text-anchor:middle;font-size:28.2222;font-family:sanserif;font-style:normal;font-weight:normal" x="2307.68" y="-268.8">
      <tspan x="2307.68" y="-268.8">C</tspan>
      <tspan x="2307.68" y="-233.522">O</tspan>
      <tspan x="2307.68" y="-198.244">N</tspan>
      <tspan x="2307.68" y="-162.967">C</tspan>
      <tspan x="2307.68" y="-127.689">E</tspan>
      <tspan x="2307.68" y="-92.4111">P</tspan>
      <tspan x="2307.68" y="-57.1333">T</tspan>
      <tspan x="2307.68" y="-21.8556">S</tspan>
    </text>
    <text style="fill: #000000;text-anchor:middle;font-size:28.2222;font-family:sanserif;font-style:normal;font-weight:normal" x="2347.68" y="-248.8">
      <tspan x="2347.68" y="-248.8">P</tspan>
      <tspan x="2347.68" y="-213.522">O</tspan>
      <tspan x="2347.68" y="-178.244">U</tspan>
      <tspan x="2347.68" y="-142.967">S</tspan>
      <tspan x="2347.68" y="-107.689">S</tspan>
      <tspan x="2347.68" y="-72.4111">É</tspan>
      <tspan x="2347.68" y="-37.1333">S</tspan>
    </text>
  </g>
  <text style="fill: #dcdcdc;text-anchor:start;font-size:84.6667;font-family:sanserif;font-style:normal;font-weight:700" x="760" y="600">
    <tspan x="760" y="600">ENVIRONNEMENT</tspan>
  </text>
  <g>
    <g>
      <rect style="fill: #ffffff" x="1616" y="-360.8" width="444" height="140"/>
      <rect style="fill: none; fill-opacity:0; stroke-width: 2; stroke: #000000" x="1616" y="-360.8" width="444" height="140"/>
    </g>
    <text style="fill: #000000;text-anchor:start;font-size:28.2222;font-family:sanserif;font-style:normal;font-weight:normal" x="1681.6" y="-320.8">
      <tspan x="1681.6" y="-320.8">Introspection continue</tspan>
    </text>
    <text style="fill: #000000;text-anchor:start;font-size:16.9333;font-family:sanserif;font-style:normal;font-weight:normal" x="1676" y="-280.8">
      <tspan x="1676" y="-280.8">Réflexion en tâche de fond</tspan>
      <tspan x="1676" y="-259.633">Déduction de règle (ex : coin --&gt; règle)</tspan>
      <tspan x="1676" y="-238.467">(Logique floue ?!)</tspan>
    </text>
  </g>
  <g>
    <rect style="fill: none; fill-opacity:0; stroke-width: 2; stroke-dasharray: 4; stroke: #000000" x="1580" y="-460" width="520" height="520"/>
    <text style="fill: #000000;text-anchor:start;font-size:33.8667;font-family:sanserif;font-style:normal;font-weight:700" x="1599.2" y="-418.08">
      <tspan x="1599.2" y="-418.08">RÉFLEXION CONSCIENTE</tspan>
    </text>
    <line style="fill: none; fill-opacity:0; stroke-width: 2; stroke-dasharray: 4; stroke: #000000" x1="1580" y1="-400" x2="2100" y2="-400"/>
  </g>
  <g>
    <text style="fill: #000000;text-anchor:start;font-size:12.8;font-family:sanserif;font-style:normal;font-weight:normal" x="14.4" y="-200">
      <tspan x="14.4" y="-200">Ensemble de</tspan>
      <tspan x="14.4" y="-184">concepts de base</tspan>
    </text>
    <g>
      <path style="fill: none; fill-opacity:0; stroke-width: 2; stroke: #000000" d="M 140 -60 C 120,-200 151.716,-200 151.716,-250.264"/>
      <polygon style="fill: #000000" points="151.716,-257.764 156.716,-247.764 151.716,-250.264 146.716,-247.764 "/>
      <polygon style="fill: none; fill-opacity:0; stroke-width: 2; stroke: #000000" points="151.716,-257.764 156.716,-247.764 151.716,-250.264 146.716,-247.764 "/>
    </g>
    <g>
      <path style="fill: none; fill-opacity:0; stroke-width: 2; stroke: #000000" d="M 160 -60 C 140,-200 171.716,-200 171.716,-250.264"/>
      <polygon style="fill: #000000" points="171.716,-257.764 176.716,-247.764 171.716,-250.264 166.716,-247.764 "/>
      <polygon style="fill: none; fill-opacity:0; stroke-width: 2; stroke: #000000" points="171.716,-257.764 176.716,-247.764 171.716,-250.264 166.716,-247.764 "/>
    </g>
    <g>
      <path style="fill: none; fill-opacity:0; stroke-width: 2; stroke: #000000" d="M 200 -60 C 180,-200 211.716,-200 211.716,-250.264"/>
      <polygon style="fill: #000000" points="211.716,-257.764 216.716,-247.764 211.716,-250.264 206.716,-247.764 "/>
      <polygon style="fill: none; fill-opacity:0; stroke-width: 2; stroke: #000000" points="211.716,-257.764 216.716,-247.764 211.716,-250.264 206.716,-247.764 "/>
    </g>
    <g>
      <path style="fill: none; fill-opacity:0; stroke-width: 2; stroke: #000000" d="M 220 -60 C 200,-200 231.716,-200 231.716,-250.264"/>
      <polygon style="fill: #000000" points="231.716,-257.764 236.716,-247.764 231.716,-250.264 226.716,-247.764 "/>
      <polygon style="fill: none; fill-opacity:0; stroke-width: 2; stroke: #000000" points="231.716,-257.764 236.716,-247.764 231.716,-250.264 226.716,-247.764 "/>
    </g>
    <text style="fill: #000000;text-anchor:start;font-size:22.5778;font-family:sanserif;font-style:normal;font-weight:700" x="163.84" y="-180">
      <tspan x="163.84" y="-180">...</tspan>
    </text>
    <g>
      <path style="fill: none; fill-opacity:0; stroke-width: 2; stroke: #000000" d="M 380 -100 C 400,-160 400,-200 400,-250.264"/>
      <polygon style="fill: #000000" points="400,-257.764 405,-247.764 400,-250.264 395,-247.764 "/>
      <polygon style="fill: none; fill-opacity:0; stroke-width: 2; stroke: #000000" points="400,-257.764 405,-247.764 400,-250.264 395,-247.764 "/>
    </g>
    <text style="fill: #000000;text-anchor:start;font-size:12.8;font-family:sanserif;font-style:normal;font-weight:normal" x="412.32" y="-180">
      <tspan x="412.32" y="-180">Score </tspan>
      <tspan x="412.32" y="-164">de fin </tspan>
      <tspan x="412.32" y="-148">de partie</tspan>
    </text>
    <g>
      <path style="fill: none; fill-opacity:0; stroke-width: 2; stroke: #000000" d="M 280 -100 C 280,-160 300,-200 300,-250.264"/>
      <polygon style="fill: #000000" points="300,-257.764 305,-247.764 300,-250.264 295,-247.764 "/>
      <polygon style="fill: none; fill-opacity:0; stroke-width: 2; stroke: #000000" points="300,-257.764 305,-247.764 300,-250.264 295,-247.764 "/>
    </g>
    <text style="fill: #000000;text-anchor:start;font-size:12.8;font-family:sanserif;font-style:normal;font-weight:normal" x="291.52" y="-143.84">
      <tspan x="291.52" y="-143.84">COACH</tspan>
    </text>
    <text style="fill: #000000;text-anchor:start;font-size:22.5778;font-family:sanserif;font-style:normal;font-weight:700" x="236.16" y="-176.16">
      <tspan x="236.16" y="-176.16">OU</tspan>
    </text>
    <text style="fill: #000000;text-anchor:start;font-size:22.5778;font-family:sanserif;font-style:normal;font-weight:700" x="325.12" y="-174.88">
      <tspan x="325.12" y="-174.88">OU</tspan>
    </text>
  </g>
  <g>
    <g>
      <rect style="fill: #ffffff" x="100" y="-100" width="320" height="160"/>
      <rect style="fill: none; fill-opacity:0; stroke-width: 2; stroke: #000000" x="100" y="-100" width="320" height="160"/>
    </g>
    <text style="fill: #000000;text-anchor:middle;font-size:28.2222;font-family:sanserif;font-style:normal;font-weight:normal" x="260" y="-60">
      <tspan x="260" y="-60">Analyseur conceptuel</tspan>
      <tspan x="260" y="-24.7222">de base</tspan>
    </text>
    <text style="fill: #000000;text-anchor:start;font-size:16.9333;font-family:sanserif;font-style:normal;font-weight:normal" x="111.716" y="20">
      <tspan x="111.716" y="20">Convertit les Matrices en concepts</tspan>
      <tspan x="111.716" y="41.1667">de base</tspan>
    </text>
  </g>
  <g>
    <g>
      <path style="fill: none; fill-opacity:0; stroke-width: 2; stroke: #000000" d="M 180 260 C 140,200 160,120 160,69.7361"/>
      <polygon style="fill: #000000" points="160,62.2361 165,72.2361 160,69.7361 155,72.2361 "/>
      <polygon style="fill: none; fill-opacity:0; stroke-width: 2; stroke: #000000" points="160,62.2361 165,72.2361 160,69.7361 155,72.2361 "/>
    </g>
    <g>
      <path style="fill: none; fill-opacity:0; stroke-width: 2; stroke: #000000" d="M 200 260 C 160,200 180,120 180,69.7361"/>
      <polygon style="fill: #000000" points="180,62.2361 185,72.2361 180,69.7361 175,72.2361 "/>
      <polygon style="fill: none; fill-opacity:0; stroke-width: 2; stroke: #000000" points="180,62.2361 185,72.2361 180,69.7361 175,72.2361 "/>
    </g>
    <g>
      <path style="fill: none; fill-opacity:0; stroke-width: 2; stroke: #000000" d="M 240 260 C 200,200 220,120 220,69.7361"/>
      <polygon style="fill: #000000" points="220,62.2361 225,72.2361 220,69.7361 215,72.2361 "/>
      <polygon style="fill: none; fill-opacity:0; stroke-width: 2; stroke: #000000" points="220,62.2361 225,72.2361 220,69.7361 215,72.2361 "/>
    </g>
    <g>
      <path style="fill: none; fill-opacity:0; stroke-width: 2; stroke: #000000" d="M 260 260 C 220,200 240,120 240,69.7361"/>
      <polygon style="fill: #000000" points="240,62.2361 245,72.2361 240,69.7361 235,72.2361 "/>
      <polygon style="fill: none; fill-opacity:0; stroke-width: 2; stroke: #000000" points="240,62.2361 245,72.2361 240,69.7361 235,72.2361 "/>
    </g>
    <g>
      <path style="fill: none; fill-opacity:0; stroke-width: 2; stroke: #000000" d="M 340 260 C 360,200 360,120 360,69.7361"/>
      <polygon style="fill: #000000" points="360,62.2361 365,72.2361 360,69.7361 355,72.2361 "/>
      <polygon style="fill: none; fill-opacity:0; stroke-width: 2; stroke: #000000" points="360,62.2361 365,72.2361 360,69.7361 355,72.2361 "/>
    </g>
    <text style="fill: #000000;text-anchor:start;font-size:22.5778;font-family:sanserif;font-style:normal;font-weight:700" x="180" y="180">
      <tspan x="180" y="180">...</tspan>
    </text>
    <text style="fill: #000000;text-anchor:start;font-size:12.8;font-family:sanserif;font-style:normal;font-weight:normal" x="60" y="160">
      <tspan x="60" y="160">Matrices</tspan>
      <tspan x="60" y="176">des positions</tspan>
      <tspan x="60" y="192">possibles</tspan>
    </text>
    <text style="fill: #000000;text-anchor:start;font-size:12.8;font-family:sanserif;font-style:normal;font-weight:normal" x="360" y="180">
      <tspan x="360" y="180">Score </tspan>
      <tspan x="360" y="196">de fin </tspan>
      <tspan x="360" y="212">de partie</tspan>
    </text>
    <text style="fill: #000000;text-anchor:start;font-size:22.5778;font-family:sanserif;font-style:normal;font-weight:700" x="280" y="180">
      <tspan x="280" y="180">OU</tspan>
    </text>
  </g>
  <g>
    <g>
      <rect style="fill: #ffffff" x="111.716" y="260" width="320" height="140"/>
      <rect style="fill: none; fill-opacity:0; stroke-width: 2; stroke: #000000" x="111.716" y="260" width="320" height="140"/>
    </g>
    <text style="fill: #000000;text-anchor:start;font-size:28.2222;font-family:sanserif;font-style:normal;font-weight:normal" x="211.716" y="300">
      <tspan x="211.716" y="300">Rule Book</tspan>
    </text>
    <text style="fill: #000000;text-anchor:start;font-size:16.9333;font-family:sanserif;font-style:normal;font-weight:normal" x="123.431" y="340">
      <tspan x="123.431" y="340">Génère des Matrices Identifiées</tspan>
      <tspan x="123.431" y="361.167">correspondant aux déplacements</tspan>
      <tspan x="123.431" y="382.333">possibles à partir des règles du jeu.</tspan>
    </text>
  </g>
  <g>
    <rect style="fill: none; fill-opacity:0; stroke-width: 2; stroke-dasharray: 4; stroke: #000000" x="-80" y="-520" width="560" height="940"/>
    <text style="fill: #000000;text-anchor:start;font-size:33.8667;font-family:sanserif;font-style:normal;font-weight:700" x="-60" y="-216.8">
      <tspan x="-60" y="-216.8">A</tspan>
      <tspan x="-60" y="-174.467">N</tspan>
      <tspan x="-60" y="-132.133">A</tspan>
      <tspan x="-60" y="-89.8">L</tspan>
      <tspan x="-60" y="-47.4667">Y</tspan>
      <tspan x="-60" y="-5.13334">S</tspan>
      <tspan x="-60" y="37.2">E</tspan>
      <tspan x="-60" y="79.5333">U</tspan>
      <tspan x="-60" y="121.867">R</tspan>
    </text>
    <line style="fill: none; fill-opacity:0; stroke-width: 2; stroke-dasharray: 4; stroke: #000000" x1="-20" y1="-520" x2="-20" y2="420"/>
  </g>
  <g>
    <rect style="fill: none; fill-opacity:0; stroke-width: 2; stroke-dasharray: 4; stroke: #000000" x="880" y="-420" width="500" height="620"/>
    <text style="fill: #000000;text-anchor:start;font-size:33.8667;font-family:sanserif;font-style:normal;font-weight:700" x="1040" y="-380">
      <tspan x="1040" y="-380">MEMOIRE</tspan>
    </text>
    <line style="fill: none; fill-opacity:0; stroke-width: 2; stroke-dasharray: 4; stroke: #000000" x1="880" y1="-365.858" x2="1380" y2="-365.858"/>
  </g>
</svg>
