<?xml version="1.0" encoding="UTF-8" standalone="no"?>
<!DOCTYPE svg PUBLIC "-//W3C//DTD SVG 1.0//EN" "http://www.w3.org/TR/2001/PR-SVG-20010719/DTD/svg10.dtd">
<svg width="34cm" height="16cm" viewBox="179 59 670 302" xmlns="http://www.w3.org/2000/svg" xmlns:xlink="http://www.w3.org/1999/xlink">
  <g>
    <rect style="fill: #ffffff" x="320" y="60" width="456.6" height="28"/>
    <rect style="fill: none; fill-opacity:0; stroke-width: 2; stroke: #000000" x="320" y="60" width="456.6" height="28"/>
    <text font-size="16" style="fill: #000000;text-anchor:middle;font-family:sans-serif;font-style:italic;font-weight:700" x="548.3" y="79">AbstractBoardState</text>
    <rect style="fill: #ffffff" x="320" y="88" width="456.6" height="20"/>
    <rect style="fill: none; fill-opacity:0; stroke-width: 2; stroke: #000000" x="320" y="88" width="456.6" height="20"/>
    <text font-size="12.8" style="fill: #000000;text-anchor:start;font-family:monospace;font-style:normal;font-weight:normal" x="323" y="102">#board_state_facts: TreeSet&lt;Atom&gt;</text>
    <rect style="fill: #ffffff" x="320" y="108" width="456.6" height="52"/>
    <rect style="fill: none; fill-opacity:0; stroke-width: 2; stroke: #000000" x="320" y="108" width="456.6" height="52"/>
    <text font-size="12.8" style="fill: #000000;text-anchor:start;font-family:monospace;font-style:italic;font-weight:700" x="323" y="122">+getId(): long</text>
    <text font-size="12.8" style="fill: #000000;text-anchor:start;font-family:monospace;font-style:normal;font-weight:normal" x="323" y="138">+getBoardStateFacts(): TreeSet&lt;Atom&gt;</text>
    <text font-size="12.8" style="fill: #000000;text-anchor:start;font-family:monospace;font-style:normal;font-weight:normal" x="323" y="154">+setBoardStateFacts(board_state_facts:TreeSet&lt;Atom&gt;): void</text>
  </g>
  <g>
    <rect style="fill: #ffffff" x="180" y="260" width="310.3" height="28"/>
    <rect style="fill: none; fill-opacity:0; stroke-width: 2; stroke: #000000" x="180" y="260" width="310.3" height="28"/>
    <text font-size="16" style="fill: #000000;text-anchor:middle;font-family:sans-serif;font-style:normal;font-weight:700" x="335.15" y="279">Cbs</text>
    <rect style="fill: #ffffff" x="180" y="288" width="310.3" height="8"/>
    <rect style="fill: none; fill-opacity:0; stroke-width: 2; stroke: #000000" x="180" y="288" width="310.3" height="8"/>
    <rect style="fill: #ffffff" x="180" y="296" width="310.3" height="36"/>
    <rect style="fill: none; fill-opacity:0; stroke-width: 2; stroke: #000000" x="180" y="296" width="310.3" height="36"/>
    <text font-size="12.8" style="fill: #000000;text-anchor:start;font-family:monospace;font-style:normal;font-weight:normal" x="183" y="310">+generalise(variable_name:String): void</text>
    <text font-size="12.8" style="fill: #000000;text-anchor:start;font-family:monospace;font-style:normal;font-weight:normal" x="183" y="326">+getPart(terms:Set&lt;Term&gt;): Rpbs</text>
  </g>
  <g>
    <polyline style="fill: none; fill-opacity:0; stroke-width: 2; stroke: #000000" points="548.3,179.242 548.3,218.503 335.15,218.503 335.15,260 "/>
    <polygon style="fill: #ffffff" points="556.3,179.242 548.3,163.242 540.3,179.242 "/>
    <polygon style="fill: none; fill-opacity:0; stroke-width: 2; stroke: #000000" points="556.3,179.242 548.3,163.242 540.3,179.242 "/>
  </g>
  <g>
    <rect style="fill: #ffffff" x="660" y="260" width="187.1" height="28"/>
    <rect style="fill: none; fill-opacity:0; stroke-width: 2; stroke: #000000" x="660" y="260" width="187.1" height="28"/>
    <text font-size="16" style="fill: #000000;text-anchor:middle;font-family:sans-serif;font-style:normal;font-weight:700" x="753.55" y="279">Rpbs</text>
    <rect style="fill: #ffffff" x="660" y="288" width="187.1" height="20"/>
    <rect style="fill: none; fill-opacity:0; stroke-width: 2; stroke: #000000" x="660" y="288" width="187.1" height="20"/>
    <text font-size="12.8" style="fill: #000000;text-anchor:start;font-family:monospace;font-style:normal;font-weight:normal" x="663" y="302">+id: long</text>
    <rect style="fill: #ffffff" x="660" y="308" width="187.1" height="52"/>
    <rect style="fill: none; fill-opacity:0; stroke-width: 2; stroke: #000000" x="660" y="308" width="187.1" height="52"/>
    <text font-size="12.8" style="fill: #000000;text-anchor:start;font-family:monospace;font-style:normal;font-weight:normal" x="663" y="322">+equals(o:Object): bool</text>
    <text font-size="12.8" style="fill: #000000;text-anchor:start;font-family:monospace;font-style:normal;font-weight:normal" x="663" y="338">+getRule(): rule</text>
    <text font-size="12.8" style="fill: #000000;text-anchor:start;font-family:monospace;font-style:normal;font-weight:normal" x="663" y="354">+setId(): long</text>
  </g>
  <g>
    <polyline style="fill: none; fill-opacity:0; stroke-width: 2; stroke: #000000" points="548.3,179.242 548.3,218.503 753.55,218.503 753.55,260 "/>
    <polygon style="fill: #ffffff" points="556.3,179.242 548.3,163.242 540.3,179.242 "/>
    <polygon style="fill: none; fill-opacity:0; stroke-width: 2; stroke: #000000" points="556.3,179.242 548.3,163.242 540.3,179.242 "/>
  </g>
</svg>
